<svg width="535" height="242" viewBox="0 0 535 242" fill="none" xmlns="http://www.w3.org/2000/svg">
<mask id="mask0_117_2" style="mask-type:alpha" maskUnits="userSpaceOnUse" x="0" y="225" width="363" height="17">
<rect width="363" height="17" transform="matrix(-1 0 0 1 363 225)" fill="#C4C4C4"/>
</mask>
<g mask="url(#mask0_117_2)">
<path d="M478.884 157.655L477.507 157.431L480.187 157.11L478.903 156.874C477.614 156.877 475.945 157.229 475.037 157.042C474.926 156.86 476.329 156.802 476.687 156.658C477.003 156.51 477.262 156.363 477.459 156.218C476.757 156.22 475.986 156.255 475.191 156.321C474.121 156.429 473.072 156.482 472.159 156.473C470.292 156.502 468.488 156.473 466.459 156.479L467.134 156.043L464.518 156.145C464.241 156.178 463.91 156.125 463.638 156.166C461.371 156.514 460.412 156.324 459.323 156.167C459.1 156.127 458.831 156.096 458.524 156.077C455.5 156.16 452.773 156.648 450.049 156.898C449.537 156.962 449.045 157.044 448.609 157.139C447.662 157.322 446.608 157.472 445.544 157.574C444.48 157.677 443.441 157.728 442.52 157.725C440.484 157.721 438.183 157.842 435.841 158.077C435.144 158.154 434.447 158.205 433.794 158.227C433.141 158.248 432.547 158.24 432.048 158.202L430.465 158.451C429.778 158.35 428.908 158.294 427.906 158.288C426.905 158.281 425.793 158.324 424.638 158.413C423.408 158.51 422.158 158.575 420.882 158.677C418.245 158.873 415.678 158.992 413.262 159.032C409.664 159.15 406.148 159.242 402.519 159.389C400.248 159.461 398.035 159.5 395.894 159.507C393.33 159.534 390.556 159.669 387.706 159.904C387.841 160.125 389.091 160.06 389.929 160.053C392.635 160.016 395.404 159.921 398.187 159.849C399.441 159.822 400.661 159.811 401.839 159.818C403.808 159.809 405.884 159.75 408.031 159.642C411.422 159.524 414.706 159.467 417.847 159.472C418.093 159.481 418.319 159.497 418.52 159.519C418.562 159.538 418.57 159.562 418.544 159.588C418.518 159.615 418.458 159.644 418.37 159.671C418.283 159.698 418.17 159.724 418.043 159.745C417.916 159.767 417.78 159.783 417.646 159.793C416.398 159.942 415.058 160.103 413.882 160.125C413.836 160.127 413.788 160.131 413.74 160.137C413.692 160.142 413.646 160.15 413.605 160.159C410.971 160.474 408.805 160.421 406.753 160.472C403.347 160.611 400.063 160.676 396.951 160.666C396.481 160.667 395.973 160.685 395.447 160.719C392.188 160.86 389.14 160.876 386.448 160.766C385.339 160.738 384.309 160.675 383.118 160.674C382.384 160.67 381.746 160.63 381.241 160.557C380.735 160.484 380.374 160.379 380.179 160.248C379.676 160.317 379.166 160.378 378.654 160.431C378.348 160.462 378.055 160.47 377.833 160.454C377.612 160.438 377.479 160.399 377.461 160.346C377.369 160.196 378.067 160.121 378.672 160.057C378.307 160.025 377.896 160.006 377.448 160.001C374.924 159.966 372.217 160.007 369.386 160.121C367.188 160.257 365.434 160.146 363.121 160.339C362.844 160.372 362.616 160.323 362.361 160.312C361.695 160.25 360.866 160.236 359.946 160.271C359.025 160.306 358.041 160.389 357.078 160.513C355.878 160.175 353.288 160.562 351.375 160.596C350.786 160.768 351.462 160.738 351.491 160.785C351.52 160.833 351.491 160.785 351.722 160.758C353.632 161.002 356.249 161.055 359.205 160.91C359.752 160.91 360.273 160.921 360.763 160.943C361.506 160.973 362.343 160.97 363.238 160.934C364.216 160.907 365.114 160.92 365.89 160.971C366.336 160.971 366.713 160.996 366.987 161.046C367.26 161.096 367.421 161.169 367.454 161.258C367.156 161.326 366.826 161.388 366.476 161.443C364.649 161.657 362.828 161.745 361.37 161.691C358.833 161.597 355.813 161.689 353.115 161.657C351.291 161.644 349.351 161.681 347.33 161.766C347.33 161.766 347.383 161.853 347.387 161.861C347.148 161.899 346.897 161.929 346.648 161.95C346.648 161.95 346.648 161.95 346.624 161.91C346.735 161.872 346.885 161.837 347.057 161.808L347.658 161.736C347.25 161.717 346.868 161.661 346.443 161.695C345.546 161.758 344.689 161.785 343.923 161.774C343.158 161.762 342.499 161.713 341.987 161.629C341.08 161.52 339.952 161.471 338.675 161.484C337.696 161.472 336.754 161.447 335.851 161.408C335.851 161.408 335.793 161.314 335.365 161.263C335.77 161.201 336.192 161.151 336.613 161.114C338.441 161.021 340.274 160.937 342.071 160.874C342.733 160.867 343.355 160.878 343.925 160.906C345.506 160.938 347.282 160.892 349.15 160.77C349.15 160.77 349.519 160.726 349.704 160.703C349.18 160.496 347.373 160.704 346.642 160.563C346.197 160.565 345.415 160.583 345.441 160.546C345.502 160.497 345.51 160.451 345.463 160.412C345.416 160.372 345.316 160.341 345.17 160.32C345.024 160.298 344.836 160.288 344.619 160.288C344.403 160.289 344.162 160.301 343.916 160.323C341.859 160.444 339.922 160.477 338.223 160.422C337.578 160.423 336.856 160.458 336.217 160.467C335.826 160.478 335.468 160.472 335.165 160.45C333.62 160.284 331.541 160.272 329.241 160.415C328.129 160.467 327.09 160.474 326.178 160.436C325.529 160.429 325.254 160.546 324.792 160.602L322.83 160.719L325.35 160.865C324.811 161.2 324.383 161.311 323.503 161.332C322.219 161.363 320.969 161.377 319.759 161.374C318.864 161.372 318.126 161.299 316.915 161.428C316.701 161.449 316.495 161.455 316.331 161.447C314.913 161.333 313.205 161.307 311.324 161.37C310.351 161.157 308.692 161.364 307.157 161.531C306.662 161.371 307.559 161.297 308.095 161.199C306.811 161.209 305.518 161.203 304.193 161.227C303.795 161.218 303.339 161.233 302.862 161.269C302.386 161.306 301.901 161.364 301.445 161.438C301.223 161.485 300.956 161.522 300.698 161.538C300.441 161.555 300.213 161.551 300.062 161.527C299.374 161.457 298.273 161.522 297.705 161.404C297.503 161.377 297.214 161.373 296.89 161.393C296.566 161.413 296.228 161.456 295.937 161.514C296.256 161.532 296.54 161.561 296.782 161.599C297.652 161.723 297.333 161.931 296.228 162.232C294.531 162.216 292.798 162.22 291.225 162.164C290.349 162.113 289.275 162.128 288.124 162.21C286.973 162.291 285.792 162.434 284.711 162.623C284.32 162.696 283.875 162.746 283.463 162.764C283.052 162.782 282.704 162.766 282.489 162.72C282.356 162.667 282.314 162.599 282.369 162.523L283.478 162.39C283.478 162.39 283.434 162.319 283.425 162.303L281.83 162.291C280.987 162.291 280.107 162.312 279.309 162.306C278.138 162.266 276.801 162.288 275.381 162.371C274.071 162.455 272.783 162.519 271.53 162.562C270.316 162.606 269.437 162.466 268.283 162.443C267.41 162.427 266.449 162.445 265.438 162.497C263.692 162.589 262.089 162.589 260.776 162.497C259.245 162.994 258.501 163.074 257.079 162.94L256.411 162.902L256.228 163.008L255.718 162.985C254.763 162.964 253.807 162.943 252.811 162.936C251.425 162.982 249.929 163.106 248.468 163.296C248.191 163.329 247.813 163.442 247.57 163.53C247.326 163.619 246.795 163.885 246.406 164.059C246.831 164.186 247.302 164.307 247.639 164.453C247.673 164.478 247.669 164.507 247.629 164.539C247.589 164.571 247.513 164.605 247.407 164.637C247.302 164.67 247.169 164.7 247.021 164.726C246.873 164.752 246.712 164.772 246.553 164.786C246.243 164.815 245.936 164.835 245.646 164.844C244.218 164.859 242.851 164.848 241.558 164.809C241.085 164.755 240.439 164.75 239.721 164.795C239.002 164.839 238.253 164.932 237.592 165.056C235.9 164.981 233.933 165.004 231.828 165.121C229.602 165.05 226.913 165.194 224.833 165.038C224.881 165.116 224.667 165.252 224.367 165.33C223.894 165.449 223.358 165.559 222.781 165.656L218.383 165.845C218.219 165.942 218.013 166.04 217.769 166.138C217.602 166.216 217.311 166.292 216.958 166.35C216.604 166.408 216.217 166.444 215.877 166.45C215.001 166.478 214.268 166.414 213.224 166.573C214.831 166.723 216.999 166.703 219.34 166.517C221.54 166.375 223.656 166.304 225.61 166.306C226.254 166.305 227.103 166.314 227.304 166.4C227.75 166.642 228.917 166.604 230.278 166.559C231.348 166.51 232.325 166.516 233.129 166.575C233.933 166.635 234.541 166.747 234.903 166.902C234.994 167.051 234.775 167.179 233.836 167.266L229.933 167.616C229.358 167.571 228.812 167.518 228.298 167.456C227.432 167.375 226.363 167.353 225.173 167.391C223.984 167.43 222.706 167.528 221.44 167.678C220.793 167.755 220.146 167.833 219.677 167.796C219.266 167.754 218.887 167.703 218.543 167.644C218.473 167.605 218.446 167.56 218.461 167.51C218.212 167.533 217.962 167.563 217.721 167.599C215.794 168.016 214.302 168.009 212.946 167.901C212.579 167.869 212.3 167.817 211.928 167.777C211.556 167.737 211.425 167.685 211.087 167.701C208.393 167.837 207.618 167.38 205.347 167.399C205.236 167.381 205.168 167.354 205.147 167.321C205.127 167.288 205.156 167.25 205.231 167.21C205.392 167.173 205.577 167.142 205.771 167.119C205.965 167.096 206.161 167.081 206.34 167.077C207.385 167.018 208.308 167.036 208.951 167.128C209.406 167.165 209.888 167.195 210.394 167.217L212.668 166.555C210.465 166.616 208.382 166.615 206.467 166.554C206.049 166.519 205.341 166.579 204.753 166.59L200.426 166.652C199.536 166.657 198.778 166.553 197.537 166.795C197.537 166.795 196.718 166.834 196.499 166.801C196.281 166.768 195.312 166.563 194.734 166.429C194.063 166.467 193.134 166.57 192.716 166.536C191.986 166.451 191.354 166.342 190.831 166.212L188.217 166.398C188.22 166.564 188.315 166.719 188.502 166.863C188.706 167.002 188.699 167.168 188.482 167.348C188.264 167.529 187.843 167.718 187.253 167.901L184.672 168.87C184.25 168.935 183.802 168.979 183.386 168.996C182.97 169.012 182.607 169.001 182.347 168.963C181.237 168.851 179.993 168.763 178.883 168.651C177.45 168.822 177.818 169.1 176.777 169.343L173.404 169.747C172.889 170.122 172.365 170.481 173.93 170.606C174.241 170.628 174.031 170.772 174.315 170.831C173.098 171.112 171.761 171.196 170.528 171.37C170.042 171.494 169.635 171.626 169.328 171.759C168.99 171.959 168.306 172.163 167.423 172.327C166.54 172.492 165.529 172.603 164.608 172.638C163.064 172.743 161.482 172.901 159.934 173.105C159.405 173.176 158.862 173.227 158.341 173.256C157.82 173.285 157.332 173.291 156.912 173.272C155.415 173.24 154.147 173.13 153.192 172.949C152.248 172.795 150.975 172.72 149.488 172.733C146.947 173.037 146.434 173.496 144.896 173.901L147.553 173.946C147.649 174.104 147.474 174.302 148.563 174.299C149.652 174.295 149.099 174.446 148.746 174.598C148.621 174.675 148.379 174.754 148.059 174.821C147.738 174.889 147.361 174.941 146.989 174.97L144.728 175.164C143.926 175.239 143.15 175.27 142.485 175.256C141.82 175.242 141.291 175.182 140.958 175.083C140.575 174.99 140.047 174.926 139.406 174.897C138.588 174.821 137.916 174.707 137.414 174.561L134.221 174.774C134.085 174.627 133.647 174.524 132.979 174.482C132.312 174.44 131.457 174.462 130.559 174.545L128.407 174.676C126.015 174.819 125.49 174.772 124.789 174.357L127.659 173.615C127.241 173.42 126.839 173.248 126.436 173.076C127.151 172.832 128.104 172.601 129.2 172.407C130.223 172.198 131.274 171.995 132.351 171.8C133.518 171.601 134.752 171.428 136.201 171.203C136.454 171.131 136.822 171.002 137.292 170.878C137.762 170.758 138.252 170.64 138.762 170.524C138.665 170.367 138.578 170.225 138.764 170.042C137.871 170.1 136.948 170.202 136.08 170.339C135.211 170.476 134.423 170.643 133.787 170.825C133.68 170.857 133.549 170.887 133.402 170.913C133.256 170.94 133.097 170.962 132.938 170.977C131.369 171.089 130.62 171.323 129.853 171.609C129.336 171.756 128.671 171.886 127.948 171.981C126.562 172.148 125.204 172.361 123.879 172.545C123.473 172.607 123.051 172.657 122.631 172.695C121.245 172.814 119.851 172.982 118.518 173.188C118.083 173.24 117.666 173.31 117.301 173.39C116.936 173.471 116.635 173.56 116.421 173.651C116.751 173.75 116.929 173.876 116.944 174.019C117.002 174.114 116.029 174.307 115.569 174.447C115.109 174.586 116.011 174.521 116.317 174.535C117.574 174.562 117.807 174.618 117.055 174.928C116.803 175.026 116.636 175.124 116.564 175.215C116.492 175.307 116.517 175.39 116.636 175.461C116.815 175.752 117.358 175.992 117.731 176.277C117.152 176.465 116.184 176.666 116.078 176.898C116.027 176.95 115.92 177.005 115.765 177.058C115.609 177.112 115.408 177.164 115.177 177.209C114.569 177.308 114.016 177.425 113.561 177.553C113.106 177.681 112.761 177.816 112.554 177.947C112.486 178.001 112.322 178.058 112.094 178.108C111.867 178.157 111.593 178.194 111.327 178.212C111.01 178.234 110.726 178.231 110.534 178.204C110.342 178.177 110.256 178.127 110.295 178.065C110.287 177.949 110.329 177.828 110.421 177.703C110.367 177.617 110.314 177.53 110.524 177.386C109.577 177.439 108.583 177.544 107.649 177.69C106.715 177.836 105.878 178.018 105.229 178.216C104.511 178.42 103.848 178.635 103.052 178.874C103.217 179.142 103.217 179.142 101.523 179.616L92.5375 179.847L90.696 180.161C88.9786 180.434 88.5703 180.416 87.4917 180.274L86.7656 180.141C85.2407 180.324 83.4846 180.535 82.5309 180.192C82.2212 180.415 82.0191 180.49 82.0894 180.524C82.5446 180.854 83.3357 181.133 84.4314 181.352C84.7107 181.403 84.9073 181.481 85.2328 181.526C86.2823 181.784 86.5258 182.181 85.9133 182.638C85.6093 182.84 85.1678 183.047 84.6028 183.252C85.4297 183.536 86.525 183.772 87.8594 183.953C88.9919 184.092 89.9244 184.28 90.6304 184.509C91.2642 184.74 92.2134 184.914 93.4235 185.02C94.0373 185.065 94.4852 185.154 94.7227 185.279C94.7933 185.615 94.6309 185.976 94.2391 186.352C94.1653 186.467 93.9556 186.59 93.6266 186.713C93.2975 186.836 92.8579 186.956 92.3423 187.062C92.3423 187.062 92.0941 187.142 91.9747 187.19C91.8753 187.598 92.2475 187.957 93.0663 188.244C93.2004 188.325 93.475 188.384 93.8603 188.414C94.2457 188.444 94.7272 188.443 95.2531 188.413C96.3642 188.365 97.4022 188.359 98.4767 188.331C99.6346 188.293 100.655 188.323 101.429 188.419C102.204 188.516 102.705 188.674 102.879 188.878C102.89 188.936 102.924 188.991 102.98 189.044C103.013 189.071 103.031 189.1 103.033 189.13L100.566 189.798L103.357 190.064C103.521 190.332 102.181 190.493 101.51 190.692L101.925 190.803C102.459 190.866 103.179 190.746 103.831 190.676L104.478 190.598L104.555 190.725C104.958 190.896 106.427 190.703 107 190.829C107.573 190.955 107.164 191.097 106.305 191.234C105.708 191.336 105.068 191.417 104.431 191.471C103.794 191.525 103.178 191.552 102.629 191.548C102.301 191.534 102.029 191.503 101.829 191.457C100.671 191.261 99.3903 191.092 97.9984 190.952C96.9311 190.826 95.5947 190.773 94.083 190.795C93.6394 190.786 93.1044 190.816 92.572 190.88C92.0397 190.943 91.544 191.037 91.1719 191.144L90.3891 191.162C90.3891 191.162 89.9608 191.273 90.0215 191.291C90.3195 191.618 89.9732 192.019 89.0342 192.433L89.8508 192.47C91.0178 192.432 90.2778 192.681 90.4522 192.804C91.2812 192.781 92.3585 192.677 92.7516 192.833L93.3399 192.822L93.1089 192.85L92.8295 192.799L91.7322 193.032C92.2522 193.071 92.6288 193.119 93.0881 193.14C93.3418 193.158 93.5437 193.19 93.6818 193.235C93.8199 193.28 93.8912 193.335 93.8915 193.399C93.8903 193.497 94.027 193.579 94.2889 193.638C94.5507 193.697 94.929 193.73 95.3874 193.736C95.9343 193.738 96.2474 193.844 96.5681 193.882L95.1748 194.522C95.1748 194.522 95.8679 194.439 95.4906 194.552L95.4424 194.473L94.5982 194.634C93.9898 194.774 93.5644 194.809 93.2051 194.708C92.8458 194.607 92.9277 194.741 92.7553 194.702C92.8181 194.805 93.2091 194.877 93.5443 194.938C93.9318 194.986 94.3692 195.022 94.8491 195.044C93.9842 195.494 93.9428 195.508 95.2063 195.627C96.4698 195.746 96.0338 195.925 97.0911 195.951C98.1484 195.976 96.9462 196.281 96.2386 196.341C95.714 196.38 95.1791 196.441 94.6706 196.519C94.1621 196.598 93.6921 196.692 93.2929 196.795L93.5052 197.142C93.8164 197.113 94.1281 197.076 94.4295 197.031C95.4537 196.841 96.3854 196.662 97.2965 196.772L96.8626 197.036L100.043 196.883C99.9605 197.081 99.4758 197.305 98.6909 197.51C98.8091 197.623 98.8817 197.742 98.9081 197.865C98.9611 197.952 99.275 197.897 99.4792 197.907C100.208 197.921 100.805 197.98 101.22 198.078C101.634 198.176 101.853 198.309 101.856 198.468C101.938 198.602 100.819 198.88 100.119 198.871C98.3711 198.897 96.4811 199 94.5511 199.174C93.3745 199.197 93.2083 198.844 91.2724 199.085C91.2339 199.248 91.4819 199.379 91.9788 199.46C92.4758 199.541 93.1946 199.567 94.0269 199.533C93.5537 199.894 90.9329 199.989 90.817 200.366C91.4696 200.34 92.1674 200.277 92.8414 200.184C93.5155 200.092 94.1423 199.972 94.6599 199.838C94.7717 199.805 94.9119 199.774 95.0678 199.749C95.2236 199.724 95.3901 199.705 95.5515 199.694C95.713 199.683 95.8644 199.681 95.9916 199.687C96.1189 199.693 96.2178 199.707 96.2794 199.728C95.9166 199.865 95.5172 200.023 95.062 200.17C94.6068 200.318 94.4971 200.382 94.1688 200.413C91.7197 200.706 90.5554 201.235 88.4366 201.582C87.8821 201.649 87.8131 201.86 88.2945 201.836C88.7525 201.812 89.1671 201.815 89.4919 201.845C89.8168 201.875 90.0391 201.93 90.1339 202.005C90.4892 202.092 90.9318 202.161 91.4504 202.211C89.2775 202.753 86.6866 203.233 83.921 203.604C83.3972 203.677 82.8509 203.722 82.3622 203.732C80.8185 203.732 79.1803 203.775 77.4807 203.86C76.8779 203.883 76.3209 203.881 75.84 203.854C74.2627 203.789 73.0102 203.931 71.8659 204.33L69.972 204.963C70.0347 205.066 70.3526 205.18 70.5974 205.337L69.118 205.675L57.8281 204.896L55.5617 205.65L52.3119 205.608C52.0628 205.63 51.8125 205.66 51.5726 205.697C50.9153 205.919 50.4014 206.133 49.6882 206.346C48.975 206.558 47.7013 206.584 46.8129 206.834C45.9246 207.084 45.0349 207.09 43.9355 207.238C43.8321 207.432 43.9389 207.606 44.2492 207.751C44.3505 207.916 44.9092 208.018 45.0057 208.176C44.9951 208.335 45.2026 208.47 45.6097 208.569C46.0167 208.668 46.6104 208.728 47.3367 208.743C49.3707 209.082 51.8236 209.323 54.621 209.46C54.8667 209.47 55.0704 209.493 55.2195 209.527C55.3687 209.562 55.4599 209.607 55.4878 209.661C55.484 209.815 55.6705 209.949 56.0338 210.052C56.3971 210.154 56.9281 210.224 57.5878 210.255C57.7635 210.261 57.8961 210.28 57.9691 210.311C58.2193 210.33 58.4017 210.367 58.4984 210.419C58.5951 210.47 58.6029 210.534 58.5212 210.604C58.4395 210.675 58.271 210.749 58.032 210.819C57.7929 210.89 57.4913 210.955 57.1565 211.009C56.6708 211.094 56.1748 211.177 55.6703 211.255C55.6992 211.302 56.1999 211.31 56.1268 211.352C55.9291 211.488 55.8834 211.616 55.993 211.724C56.1026 211.833 56.3647 211.92 56.7585 211.979L54.0603 213.08C52.4225 213.233 50.8159 213.492 49.5455 213.808C49.5438 213.859 49.6169 213.903 49.7575 213.933C49.8982 213.964 50.1013 213.981 50.3468 213.982C51.0054 214.005 51.6276 214.049 52.3373 214.074C52.7711 214.092 53.132 214.133 53.3992 214.194C53.6664 214.255 53.8345 214.335 53.8937 214.429L52.3095 214.838C52.8171 214.938 53.1936 214.986 53.5288 215.048C53.3389 215.176 53.0122 215.31 52.5741 215.437C52.136 215.564 51.5982 215.682 51.0024 215.782C50.8426 215.802 50.6797 215.817 50.523 215.826C50.3664 215.835 50.2193 215.837 50.0906 215.832C48.8637 215.691 47.4285 215.94 46.0345 216.174C44.6407 216.409 43.884 216.551 42.8549 216.733L40.8859 216.758C40.3876 216.844 39.9429 216.946 39.5874 217.055C39.232 217.163 38.9756 217.276 38.8389 217.384C38.9451 217.557 39.8789 217.462 40.4355 217.48C41.7559 217.588 43.4919 217.565 45.3557 217.415C45.8178 217.359 46.2916 217.404 46.7412 217.409C47.7112 217.431 48.6435 217.466 49.5336 217.515C50.1199 217.56 50.6677 217.616 51.1737 217.682C51.3088 217.903 49.1811 218.073 50.3887 218.182C49.9728 218.232 49.817 218.301 49.6032 218.276C48.2333 218.42 46.8837 218.49 45.7107 218.481C43.4596 218.45 40.9035 218.551 38.2517 218.774C35.3893 219.005 32.6436 219.103 30.241 219.057C29.3259 219.055 28.3031 219.102 27.2506 219.196C26.0075 219.326 24.7731 219.408 23.6276 219.436C23.2483 219.437 22.8257 219.459 22.3942 219.5C21.9628 219.542 21.5347 219.601 21.1447 219.674C21.1785 219.729 21.5502 219.769 21.4674 219.796C20.2818 220.209 19.8011 220.639 17.9761 221.061C16.7284 221.21 15.2959 221.382 14.4801 221.184C13.6643 220.985 13.9566 220.815 15.5802 220.307C15.2279 220.3 14.8035 220.324 14.3812 220.374C13.959 220.425 13.5656 220.499 13.2698 220.584L11.8656 220.964L10.6 221.327C10.711 221.509 10.7978 221.65 10.8895 221.8C11.0344 221.959 10.8754 222.153 10.4349 222.354C10.1692 222.464 9.93778 222.573 9.74303 222.682C8.95188 223.117 8.72278 223.528 9.08137 223.87C9.76862 224.36 10.7256 224.812 11.9413 225.219C13.2254 225.615 13.9281 226.114 14.986 226.546C15.5256 226.743 16.1809 226.919 16.9452 227.073C18.3948 227.415 19.9831 227.741 21.4375 228.091C22.892 228.441 24.5342 228.692 26.1494 228.981C28.5544 229.324 31.1539 229.619 33.9336 229.867C35.6536 230.084 37.4198 230.295 39.0109 230.544C40.89 230.825 43.0976 231.027 45.5786 231.144C47.7699 231.285 49.7277 231.493 51.4145 231.765C51.5915 231.794 51.7311 231.831 51.8296 231.876C52.1333 232.153 52.9845 232.348 54.2531 232.431C54.176 232.512 54.0775 232.595 53.9579 232.678C53.7818 232.778 53.7451 232.871 53.8527 232.945C53.9603 233.02 54.2071 233.072 54.5611 233.096C55.5759 233.165 56.4194 233.281 57.0537 233.441C57.2867 233.481 57.4312 233.539 57.4749 233.61C57.5186 233.682 57.4603 233.764 57.3047 233.851C57.1669 233.94 57.1568 234.021 57.2756 234.086C57.3946 234.15 57.637 234.193 57.9715 234.211C58.8304 234.295 59.7501 234.363 60.7247 234.413C62.7984 234.526 65.2104 234.524 67.8152 234.41C68.0925 234.376 68.3717 234.427 68.6952 234.389C70.5372 234.26 72.2479 234.24 73.6202 234.331C75.2292 234.367 76.9114 234.36 78.608 234.376C81.0591 234.365 83.3202 234.433 85.3282 234.578C87.6235 234.438 88.9132 234.681 90.8505 234.685C92.6391 234.71 94.3344 234.77 95.9203 234.865C98.4769 234.99 101.024 235.099 103.544 235.245C105.908 235.315 108.085 235.448 110.037 235.643C110.785 235.731 112.14 235.594 112.65 235.778C113.159 235.962 114.188 235.94 115.019 236.002L117.641 236.153C118.092 236.188 118.588 236.211 119.121 236.221C121.559 236.233 123.247 236.479 125.51 236.529L125.741 236.501C129.759 236.867 134.357 237.068 139.399 237.098C142.345 237.21 145.566 237.204 148.691 237.287C149.437 237.451 151.198 237.248 152.133 237.399C153.068 237.549 154.595 237.45 155.8 237.475C157.006 237.5 158.185 237.562 159.473 237.559C160.592 237.56 161.536 237.627 162.221 237.754C163.784 237.965 165.689 238.089 167.852 238.12C170.712 238.175 173.417 238.299 176.327 238.272C176.285 238.425 176.464 238.556 176.844 238.65C177.224 238.744 177.793 238.798 178.491 238.808C181.602 238.866 184.423 239.019 187.576 239.064L188.419 239.064L197.848 239.152C200.388 239.169 202.835 239.197 205.426 239.217C206.397 239.1 206.42 239.301 207.091 239.262C207.279 239.164 207.5 239.12 207.831 239.174L207.903 239.292L218.664 239.449C222.876 239.564 227.308 239.598 231.92 239.552C233.015 239.563 234.036 239.603 234.968 239.669C235.832 239.693 236.733 239.703 237.666 239.701C238.928 239.671 240.16 239.656 241.359 239.656C244.511 239.701 247.82 239.676 251.271 239.643C254.723 239.61 257.339 239.669 260.411 239.664C262.492 239.66 264.563 239.641 266.717 239.594C267.745 239.572 269.012 239.454 270.077 239.411C271.142 239.368 271.489 239.369 271.63 239.436C272.094 239.626 273.258 239.503 274.19 239.485C276.005 239.453 276.263 239.389 276.757 238.898L274.528 238.742C273.982 238.692 273.295 238.683 272.534 238.716C271.773 238.75 270.962 238.825 270.181 238.933C269.874 238.98 269.552 239.017 269.236 239.041C268.919 239.066 268.613 239.079 268.336 239.078C266.087 239.052 263.871 238.996 261.71 238.95L261.394 238.921L261.374 238.483C261.66 238.44 261.956 238.405 262.252 238.378L273.09 238.094C275.577 238.024 278.159 237.867 280.6 237.803C283.041 237.739 284.356 237.699 286.25 237.633C287.049 237.595 287.864 237.546 288.688 237.485C288.64 237.442 288.613 237.398 288.606 237.351C288.563 237.28 288.505 237.185 288.855 237.109C289.238 237.002 289.748 236.911 290.286 236.853C290.791 236.815 291.28 236.794 291.735 236.789C293.933 236.753 296.443 236.522 298.731 236.145L299.53 236.397C302.965 236.255 306.451 236.117 310.04 235.983C310.758 235.946 311.512 235.876 312.245 235.778C313.031 235.683 313.754 235.487 314.581 235.379C315.398 235.302 316.209 235.241 317 235.199C316.786 235.134 316.504 235.083 316.162 235.046C315.826 235.033 315.581 234.992 315.463 234.93C315.345 234.869 315.359 234.788 315.505 234.702C315.761 234.552 315.873 234.412 315.317 234.394C314.802 234.36 314.434 234.286 314.256 234.182C314.078 234.077 314.097 233.946 314.311 233.804C314.404 233.721 314.47 233.64 314.508 233.56L314.74 233.533C315.502 233.238 317.024 233.132 318.116 232.891C318.632 232.821 319.166 232.781 319.634 232.777C320.842 232.725 322.019 232.702 323.268 232.637C323.865 232.607 324.489 232.553 325.104 232.476C325.982 232.371 326.075 232.36 326.584 231.977C325.793 231.984 325.165 231.927 324.808 231.816C324.45 231.704 324.385 231.546 324.623 231.367C325.276 230.975 325.966 230.563 328.921 230.285C327.957 230.271 327.03 230.244 326.143 230.203C325.885 230.194 325.691 230.165 325.589 230.121C325.486 230.076 325.479 230.017 325.569 229.952C325.659 229.887 325.841 229.819 326.09 229.757C326.34 229.695 326.646 229.642 326.967 229.605C328.526 229.384 330.153 229.235 331.665 229.177C332.939 229.151 334.089 229.166 335.576 229.165L337.332 228.955C337.303 228.907 337.561 228.843 337.496 228.817C337.05 228.574 336.557 228.337 336.05 228.076C336.86 227.935 337.561 227.765 338.074 227.586C338.587 227.406 338.89 227.224 338.95 227.06C338.994 227.011 338.982 226.966 338.916 226.928C338.851 226.891 338.732 226.862 338.569 226.844C338.107 226.812 337.75 226.752 337.526 226.667C337.303 226.582 337.218 226.476 337.278 226.355L338.644 225.913C342.755 225.597 346.793 225.371 350.682 225.239L354.192 225.14C354.616 225.022 354.485 224.97 354.086 224.967C353.687 224.964 352.567 224.997 351.784 225.014C351.108 225.037 350.507 225.022 350.041 224.97C349.574 224.918 349.258 224.83 349.121 224.716L350.3 224.211C350.242 224.116 350.16 223.982 349.521 223.991C349.084 223.98 348.762 223.933 348.607 223.856C348.452 223.779 348.473 223.678 348.667 223.569C348.696 223.49 348.652 223.418 348.536 223.356C347.591 223.351 346.65 223.354 345.792 223.33C345.393 223.322 345.055 223.292 344.803 223.244C344.551 223.195 344.389 223.129 344.33 223.048C344.299 222.97 344.375 222.88 344.55 222.787C344.726 222.694 344.997 222.6 345.341 222.512C346.686 222.404 347.916 222.403 348.762 222.509C349.063 222.592 349.547 222.637 350.15 222.639C350.753 222.64 351.447 222.598 352.14 222.518C352.934 222.426 353.725 222.385 354.373 222.403C355.021 222.422 355.482 222.498 355.674 222.619C356.489 222.572 357.211 222.536 357.923 222.485C358.763 222.42 359.558 222.401 360.22 222.429C361.281 222.45 362.423 222.438 363.621 222.394C367.076 222.284 370.535 222.183 373.88 222.137C374.765 222.124 375.531 222.159 376.406 222.13C377.281 222.102 377.974 222.179 379.068 222.023C379.276 221.998 379.486 221.983 379.681 221.977C379.875 221.971 380.049 221.976 380.189 221.99C382.111 222.114 384.365 222.131 386.817 222.041C390.177 222.019 393.66 221.957 397.025 221.943C398.011 221.955 398.944 221.988 399.812 222.04C400.473 222.072 401.165 222.094 401.885 222.105C402.437 222.115 402.965 222.086 402.872 222.257C402.779 222.429 403.605 222.322 404.082 222.29C405.719 222.207 407.393 222.094 409.084 221.953C410.75 221.799 412.382 221.71 413.883 221.69C414.967 221.679 416.085 221.723 417.479 221.488C417.426 221.401 417.373 221.314 417.07 221.224C418.206 220.975 419.503 220.76 420.853 220.599C422.203 220.437 423.567 220.332 424.833 220.293L426.578 219.822C427.007 219.766 427.446 219.726 427.867 219.703C428.288 219.68 428.682 219.676 429.026 219.689C429.292 219.696 429.616 219.678 429.938 219.64C430.261 219.601 430.561 219.544 430.782 219.479C431.113 219.396 431.518 219.324 431.946 219.273C432.373 219.221 432.804 219.193 433.185 219.191C434.384 219.139 435.664 219.021 436.893 218.848C437.213 218.746 437.413 218.641 437.469 218.545C437.525 218.45 437.435 218.368 437.209 218.31C436.846 218.208 436.642 218.078 436.61 217.928C436.577 217.778 436.717 217.61 437.021 217.436C437.177 217.329 437.229 217.228 437.174 217.139C437.119 217.049 436.959 216.974 436.703 216.916C435.746 216.65 436.002 216.501 437.567 216.059C437.821 215.986 438.128 215.917 438.467 215.858C438.806 215.798 439.171 215.749 439.538 215.713C440.398 215.641 441.247 215.588 442.069 215.554C442.531 215.498 443.005 215.543 443.537 215.522C446.199 215.414 446.589 215.24 447.451 214.866L448.079 214.596C449.245 214.378 450.519 214.196 451.811 214.065C453.103 213.933 454.38 213.855 455.55 213.836C456.015 213.835 456.55 213.797 457.072 213.73C458.772 213.523 460.494 213.38 462.123 213.311C463.138 213.271 464.232 213.169 465.274 213.018C466.316 212.866 467.262 212.67 467.997 212.454C468.658 212.26 469.522 212.085 470.469 211.955C471.578 211.822 471.681 211.666 471.061 211.545C470.442 211.425 469.405 211.27 468.484 211.144C468.164 211.101 467.965 211.031 467.911 210.942C467.856 210.853 467.948 210.748 468.175 210.639C468.321 210.453 468.347 210.277 468.251 210.114C468.199 210.046 468.235 209.969 468.355 209.887C468.474 209.805 468.676 209.72 468.945 209.638C469.215 209.556 469.546 209.478 469.916 209.411C470.287 209.344 470.688 209.289 471.094 209.249C472.803 209.044 474.467 208.844 476.21 208.695C476.941 208.624 477.671 208.536 478.382 208.434C479.838 208.181 481.396 207.972 482.965 207.817C483.709 207.748 484.437 207.628 484.991 207.481C486.738 207.087 488.347 206.673 489.79 206.246C490.138 206.114 490.593 205.984 491.127 205.867C491.661 205.749 492.262 205.645 492.892 205.561C493.401 205.5 493.814 205.366 494.206 205.277C494.491 205.07 494.521 204.879 494.295 204.721C494.068 204.563 493.591 204.444 492.91 204.375C492.264 204.291 491.659 204.195 491.1 204.092C490.427 204.01 489.626 203.96 488.728 203.945C487.665 203.901 486.878 203.774 486.472 203.581C489.383 203.232 492.151 202.731 494.703 202.848L496.642 202.531C496.565 202.405 496.497 202.295 496.434 202.192C495.973 202.006 495.829 201.771 496.015 201.507C496.167 201.379 496.154 201.263 495.975 201.17C495.796 201.077 495.458 201.01 494.996 200.977C492.258 200.637 489.092 200.408 486.524 200.022C485.719 199.949 484.777 199.916 483.737 199.924C482.73 199.901 482.772 199.727 483.93 199.512C484.58 199.4 485.243 199.292 485.915 199.189C488.881 199.172 490.089 199.687 493.473 199.544L495.042 198.865C495.466 198.855 495.878 198.851 496.274 198.853L501.949 199.129C502.422 199.143 502.79 199.19 503.011 199.265C503.232 199.34 503.298 199.44 503.201 199.554C503.163 199.693 503.241 199.821 503.433 199.932C503.557 200.01 503.478 200.114 503.213 200.221C502.616 200.462 503.382 200.497 503.865 200.557C503.989 200.563 504.131 200.562 504.285 200.555C504.438 200.548 504.598 200.535 504.757 200.516C504.917 200.497 505.071 200.472 505.211 200.444C505.351 200.416 505.475 200.385 505.575 200.352C506.427 200.123 507.172 199.882 508.009 199.629C507.415 199.387 508.114 198.99 507.187 198.772C507.083 198.728 507.041 198.675 507.065 198.615C507.088 198.556 507.175 198.491 507.322 198.425C507.7 198.256 507.879 198.091 507.843 197.947C507.807 197.802 507.557 197.684 507.116 197.604L507.063 197.517C508.224 197.226 507.917 196.967 508.372 196.658L509.489 196.457C512.267 195.971 512.272 195.979 514.664 195.997C515.146 195.812 514.533 195.784 514.074 195.763L510.227 195.556C507.712 195.418 505.124 195.322 502.314 195.269C499.504 195.217 496.372 195.043 493.467 194.917C493.321 194.907 493.208 194.888 493.14 194.861C493.072 194.834 493.049 194.8 493.074 194.761C493.19 194.719 493.341 194.679 493.517 194.644C493.692 194.608 493.888 194.578 494.089 194.555C495.013 194.444 495.961 194.373 496.946 194.28L498.782 194.119L499.347 193.908C499.715 193.779 499.966 193.622 500.455 193.529C500.858 193.46 501.295 193.408 501.722 193.378C502.148 193.348 502.548 193.34 502.879 193.357C503.798 193.399 504.629 193.461 505.506 193.516C506.383 193.572 506.867 193.632 507.628 193.659C509.173 193.672 510.667 193.705 512.102 193.758C513.311 193.883 514.429 194.032 515.45 194.202C516.086 194.27 516.681 194.351 517.768 194.263C518.284 194.183 518.729 194.078 519.024 193.967C519.319 193.856 519.445 193.745 519.38 193.655C519.322 193.584 519.157 193.528 518.901 193.493C518.644 193.457 518.305 193.442 517.916 193.45C516.824 193.437 515.816 193.393 514.909 193.32C513.647 193.186 512.112 193.129 510.391 193.151C509.808 193.17 509.417 193.098 508.906 193.075C508.396 193.051 507.964 192.993 507.395 193.036C505.627 193.146 504.779 192.977 503.72 192.867C503.361 192.819 503.139 192.74 503.078 192.64C503.017 192.54 503.118 192.422 503.372 192.3C503.861 192.057 504.459 191.812 505.157 191.57C505.517 191.451 505.977 191.338 506.502 191.24C507.027 191.141 507.603 191.061 508.184 191.004C508.532 190.855 508.717 190.708 508.724 190.578C508.73 190.447 508.558 190.336 508.221 190.255C507.364 190.07 506.604 189.882 504.683 189.985C503.78 190.025 502.93 190.032 502.167 190.008C500.475 189.974 498.523 190.048 496.495 190.222C495.971 190.267 495.455 190.298 494.964 190.313C491.458 190.42 488.118 190.474 484.768 190.511C482.993 190.53 481.204 190.524 479.352 190.577C475.008 190.692 471.053 190.633 466.86 190.67C464.664 190.689 462.698 190.612 461.066 190.442C460.748 190.385 460.475 190.319 460.25 190.244C461.332 190.047 462.52 189.891 463.7 189.791C464.881 189.691 466.015 189.65 466.993 189.673C467.531 189.728 468.226 189.738 469.001 189.702C469.776 189.666 470.6 189.585 471.382 189.468L469.109 189.402C467.602 189.371 466.059 189.362 464.593 189.317C462.265 189.241 460.107 189.119 457.696 189.07C455.749 189.024 454.007 188.908 452.525 188.725C451.453 188.591 450.23 188.497 448.88 188.443C447.92 188.414 447.92 188.414 447.306 188.141C447.793 187.964 448.422 187.939 449.016 187.936C452.571 187.825 455.955 187.805 459.099 187.878C460.685 187.884 462.091 187.959 463.252 188.099C463.536 188.158 464.263 188.13 464.846 188.111C466.676 188.082 468.424 188.09 470.07 188.136C472.346 188.213 474.881 188.195 477.577 188.082C478.088 187.945 477.499 187.956 477.47 187.909C475.383 187.821 473.336 187.719 471.207 187.645C470.625 187.618 470.003 187.605 469.348 187.605C466.902 187.651 464.863 187.523 463.518 187.238C463.451 187.128 462.566 187.141 462.175 187.069C461.982 187.007 461.854 186.934 461.794 186.852C462.364 186.649 463.008 186.648 463.504 186.647C464.943 186.67 466.327 186.713 467.65 186.777C468.88 186.837 470.241 186.853 471.697 186.824C472.772 186.797 473.69 186.839 474.775 186.828C475.363 186.804 475.972 186.765 476.589 186.712C475.901 186.57 474.968 186.483 473.853 186.456C473.007 186.371 471.95 186.346 471.815 186.125C472.214 185.967 472.659 185.965 473.016 185.981C473.76 185.98 474.478 185.99 475.167 186.011C476.629 186.056 478.211 186.056 479.88 186.013C480.76 185.996 481.594 186.001 482.37 186.027C484.127 186.062 485.811 186.139 487.42 186.175C490.716 186.211 493.722 186.342 496.889 186.41C497.594 186.427 498.226 186.487 499.155 186.384C500.084 186.281 500.125 186.268 500.235 186.204C500.495 186.097 500.574 185.994 500.455 185.915C500.271 185.842 499.912 185.801 499.442 185.8C496.611 185.683 493.926 185.519 491.403 185.308C490.293 185.266 489.32 185.18 488.519 185.053C487.883 184.966 487.129 184.908 486.281 184.882C485.047 184.818 483.76 184.772 482.426 184.743C481.806 184.727 481.278 184.681 480.874 184.605C480.47 184.53 480.199 184.428 480.075 184.306L481.71 183.898C481.967 183.879 482.222 183.863 482.474 183.849L496.046 184.143L497.39 184.151C498.863 184.126 499.223 184.066 500.621 183.594C497.432 183.483 494.925 183.159 493.35 182.655C493.728 182.601 494.116 182.555 494.505 182.517C497.054 182.398 499.463 182.366 501.64 182.423C502.933 182.429 504.263 182.413 505.597 182.405C505.207 182.173 503.712 182.242 502.737 182.19C500.409 182.108 498.35 181.939 496.626 181.687C496.032 181.589 495.288 181.527 494.429 181.502C493.57 181.494 492.852 181.434 492.338 181.329C491.825 181.224 491.53 181.077 491.481 180.9C491.4 180.739 491.226 180.59 490.96 180.454C491.43 180.262 492.175 180.078 493.057 179.936C493.938 179.795 494.895 179.706 495.748 179.686C497.568 179.607 499.456 179.477 501.364 179.3C502.315 179.211 503.247 179.16 504.1 179.15C504.852 179.142 505.707 179.078 506.534 178.967C507.362 178.855 508.116 178.703 508.682 178.533C509.446 178.323 510.16 178.111 510.873 177.898C511.586 177.686 512.413 177.417 513.246 177.157C513.98 177.116 514.695 177.09 515.381 177.079C515.914 177.088 516.537 177.06 517.175 176.997C517.813 176.934 518.44 176.839 518.982 176.723C518.664 176.609 518.305 176.508 517.926 176.376C518.446 176.201 518.823 176.023 519.034 175.852C519.245 175.682 519.285 175.522 519.153 175.383C519.076 175.257 519.641 175.045 519.836 174.878C520.088 174.734 520.135 174.599 519.972 174.492C519.809 174.385 519.443 174.31 518.923 174.277C518.277 174.216 517.752 174.125 517.368 174.006C517.241 173.976 517.177 173.933 517.18 173.884C517.184 173.834 517.256 173.779 517.389 173.722C517.522 173.666 517.713 173.611 517.943 173.561C518.173 173.512 518.436 173.47 518.708 173.44C519.539 173.353 520.364 173.298 521.137 173.275C522.467 173.234 523.741 173.208 524.958 173.198C526.304 173.182 527.802 173.084 529.298 172.915C530.638 172.754 531.84 172.61 532.495 172.303C533.15 171.996 534.198 172.006 535.004 171.782C534.551 171.581 533.747 171.441 532.672 171.376C531.968 171.354 531.381 171.293 530.948 171.199C530.515 171.106 530.245 170.981 530.156 170.832L532.602 170.209C534.555 169.916 535.636 170.141 537.746 170.024L535.572 169.794C535.528 169.771 535.512 169.744 535.523 169.715C535.734 169.25 536.07 169.15 538.293 168.892L539.541 168.743L541.515 168.565C541.832 168.47 542.05 168.37 542.15 168.277C542.249 168.183 542.226 168.099 542.082 168.032C541.792 167.92 541.705 167.776 541.826 167.614C542.018 167.507 542.033 167.408 541.871 167.335C541.708 167.262 541.377 167.219 540.936 167.213C540.583 167.205 540.557 167.081 540.365 167.011C540.175 166.914 539.849 166.84 539.409 166.794C538.97 166.747 538.428 166.729 537.819 166.741C536.025 166.751 534.34 166.714 532.793 166.633L533.07 166.599C531.458 166.671 529.951 166.68 528.622 166.625C527.29 166.556 525.581 166.6 524.166 166.559C523.015 166.568 522.138 166.473 521.722 166.293C521.319 166.121 519.856 166.161 518.735 166.194C518.071 166.216 517.43 166.225 516.817 166.221C515.995 166.182 514.967 166.219 513.905 166.325C513.586 166.358 513.272 166.375 512.993 166.375C510.292 166.42 507.596 166.472 504.932 166.495C504.317 166.482 503.596 166.513 502.853 166.584C502.541 166.615 502.237 166.627 501.983 166.62C497.773 166.55 493.023 166.73 488.895 166.633C488.395 166.609 487.841 166.605 487.25 166.618C485.92 166.676 484.766 166.639 483.962 166.513C483.528 166.447 482.971 166.41 482.328 166.405C481.685 166.401 480.969 166.429 480.226 166.487C478.989 166.565 477.846 166.573 476.917 166.512C475.107 166.455 473.202 166.431 471.22 166.442C470.612 166.452 470.078 166.43 469.659 166.377C469.24 166.325 468.947 166.243 468.803 166.139C469.289 165.962 469.822 165.941 470.327 165.956C472.287 165.916 474.241 165.868 476.164 165.849C477.885 165.795 479.537 165.778 481.094 165.8C481.867 165.824 482.832 165.769 483.778 165.647C484.938 165.493 486.132 165.416 487.119 165.433C487.851 165.437 488.624 165.423 489.426 165.393C489.94 165.356 490.466 165.293 490.951 165.21C491.144 165.174 491.353 165.144 491.566 165.121C491.779 165.099 491.991 165.084 492.189 165.079C492.386 165.073 492.565 165.077 492.713 165.09C492.861 165.103 492.975 165.124 493.049 165.153C493.792 165.394 495.453 165.271 496.875 165.245C499.006 164.837 500.592 165.078 502.584 164.848C502.741 164.833 502.897 164.823 503.04 164.821C503.183 164.818 503.312 164.822 503.418 164.832C507.272 164.971 511.765 164.856 515.812 164.903C516.258 164.91 516.776 164.886 517.307 164.834C520.776 164.488 524.112 164.39 526.662 164.559C526.972 164.574 527.325 164.575 527.705 164.561C529.448 164.423 531.115 164.368 532.567 164.401C534.842 164.39 537.03 164.399 539.342 164.367C540.935 164.322 542.333 164.37 543.396 164.507C543.429 164.562 544.137 164.503 544.679 164.497C544.991 164.358 545.261 164.233 545.583 164.11C545.87 163.957 546.3 163.803 546.845 163.658C547.389 163.512 548.034 163.379 548.737 163.266C549.938 163.122 550.058 162.913 549.218 162.836C547.051 162.582 544.326 162.478 541.244 162.532C538.667 162.536 536.044 162.546 533.431 162.571C531.907 162.593 530.3 162.642 528.817 162.651C528.317 162.67 527.803 162.697 527.28 162.733C526.639 162.786 526.017 162.815 525.447 162.818C523.617 162.774 521.574 162.812 519.416 162.932C518.625 162.958 517.866 162.967 517.15 162.958C515.456 162.925 513.619 162.949 511.688 163.029C510.488 163.074 509.324 163.097 508.209 163.099C507.815 163.104 507.495 163.066 507.115 163.095C503.777 163.394 501.412 163.178 498.407 163.293C496.947 163.325 495.552 163.325 494.241 163.293C491.683 163.294 489.055 163.327 486.365 163.391C482.808 163.496 479.512 163.46 476.116 163.503C475.446 163.512 474.799 163.51 474.179 163.498C471.165 163.418 467.892 163.435 464.439 163.549C463.654 163.566 462.95 163.545 462.37 163.49C461.79 163.434 461.346 163.344 461.066 163.226C460.948 163.144 461.025 163.039 461.281 162.929C461.708 162.789 462.189 162.652 462.717 162.52L481.94 162.077C482.747 162.054 483.534 162.042 484.298 162.04C486.542 162.036 488.857 162.002 491.228 161.937C493.572 161.876 495.81 161.887 498.081 161.868C498.75 161.862 499.436 161.848 500.137 161.825C504.878 161.644 509.501 161.534 513.973 161.495C515.854 161.489 517.886 161.406 519.804 161.379C521.722 161.352 524.345 161.342 526.621 161.332L533.665 161.334C535.05 161.328 536.399 161.344 537.744 161.352C539.375 160.776 539.937 160.641 542.114 160.389C542.858 160.295 543.616 160.24 544.297 160.228C546.458 160.274 549.169 160.084 551.218 160.109C552.455 160.097 553.504 160.161 554.258 160.295C554.913 160.4 555.662 160.483 556.493 160.543C558.771 160.05 558.972 159.73 557.258 159.605C556.794 159.576 556.155 159.585 555.82 159.524C555.627 159.487 555.365 159.465 555.053 159.461C554.74 159.458 554.387 159.472 554.021 159.503C552.866 159.583 551.782 159.602 550.88 159.558C550.031 159.499 548.991 159.501 547.859 159.564C547.027 159.664 546.296 159.523 545.577 159.483C544.857 159.442 544.267 159.369 543.144 159.478C542.938 159.5 542.734 159.513 542.546 159.516C542.359 159.52 542.194 159.513 542.064 159.498C540.858 159.427 539.418 159.435 537.861 159.519C535.474 159.602 533.235 159.606 531.22 159.528C530.014 159.461 528.986 159.341 528.176 159.174C527.955 159.118 527.627 159.085 527.224 159.077C525.197 159.112 522.996 159.243 520.763 159.462C519.922 159.55 519.082 159.619 518.261 159.669C516.574 159.779 514.942 159.841 513.413 159.853C511.193 159.854 508.88 159.897 506.497 159.979C505.027 160.025 503.609 160.042 502.263 160.03C500.879 160.024 499.401 160.059 497.862 160.135C496.333 160.196 494.985 160.161 493.981 160.033C493.65 159.964 493.384 159.883 493.187 159.79C495.427 159.487 497.743 159.334 499.67 159.36C500.401 159.34 501.009 159.36 501.78 159.242L501.804 159.281C501.958 159.307 502.189 159.313 502.455 159.298C502.72 159.284 503.001 159.249 503.244 159.202C503.152 159.052 503.065 158.91 503.002 158.808C501.534 158.826 500.109 158.824 498.734 158.803C497.574 158.773 496.001 159.038 494.997 158.938C493.04 159.063 491.794 158.891 490.038 158.941C488.283 158.99 486.35 159.154 484.595 159.204C483.063 159.231 481.576 159.237 480.141 159.222C479.646 159.2 479.076 159.205 478.464 159.237C477.605 159.296 476.805 159.306 476.158 159.265C475.51 159.225 475.04 159.135 474.802 159.007C475.026 158.887 475.328 158.733 475.677 158.572C475.036 158.441 474.063 158.385 472.901 158.414L471.261 158.408C470.826 158.412 470.493 158.376 470.332 158.309C470.171 158.241 470.193 158.148 470.394 158.047C473.506 157.538 473.62 157.482 475.904 157.809L478.936 157.657L478.884 157.655ZM437.876 159.051L438.107 159.024L437.876 159.051ZM60.0445 213.133L60.0976 213.22L60.0397 213.125L59.5315 213.186L59.4977 213.131L60.0445 213.133ZM133.845 175.132C134.564 175.038 135.289 174.951 136.017 174.872C136.208 174.86 136.386 174.857 136.537 174.864C136.688 174.871 136.808 174.887 136.885 174.912C136.943 175.006 136.536 175.072 136.167 175.116C135.701 175.176 135.224 175.214 134.787 175.226C134.35 175.238 133.968 175.224 133.68 175.186L133.262 175.151L133.845 175.132ZM503.9 198.184C503.427 198.2 502.979 198.203 502.566 198.192C500.733 198.115 498.979 198.004 497.1 197.933C494.73 197.753 492.006 197.68 489.031 197.716C487.869 197.734 486.887 197.675 486.2 197.548C485.788 197.479 485.258 197.439 484.64 197.43L476.775 197.223C476.289 197.179 475.868 197.119 475.524 197.043C476.217 196.959 476.679 196.904 476.956 196.871C477.531 196.861 478.026 196.887 478.39 196.944C478.781 197.042 479.442 197.08 480.242 197.052C481.049 197.029 481.836 197.017 482.6 197.015C484.041 197.02 485.492 197.04 486.939 197.053C487.501 197.324 489.162 197.201 490.584 197.175L491.683 197.187C495.274 197.327 498.705 197.52 501.958 197.766C502.586 197.807 503.128 197.873 503.566 197.962C503.731 198.031 503.784 198.118 503.72 198.214L503.951 198.186L503.9 198.184ZM343.531 224.092C342.659 224.11 341.752 224.148 340.822 224.205C340.106 224.263 339.407 224.298 338.753 224.309C335.09 224.37 331.273 224.51 327.353 224.728C326.841 224.761 326.348 224.777 325.895 224.776L322.686 224.72C321.675 224.689 321.656 224.658 322.392 224.24C323.003 224.159 323.62 224.085 324.24 224.018C324.61 223.974 325.211 223.902 325.351 223.97C326.209 224.154 327.772 224.035 329.087 223.996C332.894 223.894 336.821 223.745 340.664 223.623C341.477 223.593 342.264 223.578 343.018 223.578C343.485 223.572 343.912 223.583 344.279 223.613C344.386 223.616 344.476 223.624 344.543 223.638C344.609 223.652 344.651 223.671 344.664 223.693C344.678 223.716 344.664 223.741 344.622 223.768C344.581 223.795 344.513 223.823 344.424 223.849C344.109 223.942 343.746 224.031 343.346 224.114L343.531 224.092ZM315.642 163.399L311.892 163.35C311.442 163.344 311.06 163.288 310.579 163.312C308.011 163.388 305.633 163.367 303.547 163.25C302.837 163.202 302.006 163.193 301.099 163.222C298.325 163.308 295.708 163.312 293.318 163.232C291.774 163.217 290.329 163.163 289.005 163.073C288.903 163.052 288.839 163.023 288.818 162.989C288.797 162.955 288.82 162.917 288.884 162.876C288.901 162.85 288.946 162.822 289.017 162.794C289.088 162.766 289.183 162.739 289.295 162.715C289.407 162.69 289.534 162.668 289.667 162.651C289.799 162.634 289.935 162.622 290.064 162.616C291.738 162.494 293.326 162.451 294.7 162.492C295.974 162.54 297.346 162.554 298.793 162.534C300.179 162.529 301.119 162.687 302.831 162.566C303.555 162.526 304.193 162.539 304.639 162.603C305.536 162.709 306.787 162.714 308.171 162.62C308.999 162.572 309.79 162.551 310.514 162.559C312.272 162.593 313.951 162.663 315.579 162.73C316.092 162.745 316.642 162.747 317.22 162.736L325.373 162.605C327.333 162.565 329.287 162.516 331.21 162.497C332.783 162.456 334.246 162.469 335.549 162.536C336.938 162.606 338.453 162.634 340.065 162.62C342.569 162.659 345.058 162.673 347.783 162.668C349.521 162.671 351.3 162.661 353.116 162.63C354.035 162.589 354.814 162.622 355.305 162.722C355.604 162.805 356.307 162.738 356.89 162.719C360.003 162.534 362.921 162.49 365.442 162.59C365.764 162.607 366.118 162.612 366.495 162.608C368.923 162.604 371.439 162.582 373.77 162.582C374.384 162.59 374.962 162.611 375.496 162.646C375.439 162.702 375.276 162.764 375.04 162.817C374.805 162.87 374.516 162.912 374.233 162.932C372.028 163.091 369.899 163.174 367.936 163.18C364.668 163.159 361.245 163.205 357.702 163.315C354.953 163.426 352.446 163.403 350.369 163.247C348.745 163.13 346.632 163.174 344.393 163.371C343.435 163.465 342.506 163.502 341.731 163.478C340.986 163.447 340.13 163.454 339.215 163.501C337.286 163.588 335.43 163.629 333.685 163.622C331.978 163.59 330.387 163.501 328.634 163.475C326.882 163.448 324.213 163.463 322.052 163.418C319.891 163.372 317.754 163.366 315.642 163.399ZM471.047 158.789C470.849 159.033 470.149 159.184 469.395 159.249C466.796 159.538 464.226 159.661 462.118 159.597C460.979 159.508 459.461 159.543 457.861 159.693C455.999 159.849 454.258 159.875 452.946 159.766C452.624 159.747 452.378 159.707 452.229 159.649C452.2 159.601 452.147 159.515 452.138 159.499C452.276 159.459 452.445 159.422 452.632 159.391C452.819 159.359 453.02 159.335 453.218 159.319L461.826 159.04L463.326 158.978C466.067 158.818 468.677 158.754 471.047 158.789ZM454.114 162.646C452.771 163.044 452.766 163.036 452.078 163.127C448.757 163.505 445.439 163.709 442.517 163.715C441.868 163.714 441.317 163.675 440.911 163.603C440.702 163.593 440.569 163.562 440.541 163.516C440.513 163.47 440.592 163.414 440.761 163.358L441.83 163.078C443.77 162.957 445.682 162.86 447.555 162.789C449.736 162.706 451.669 162.702 453.93 162.668L454.114 162.646ZM343.692 222.329C342.44 222.877 342.435 222.869 340.339 223.011C338.878 223.111 337.462 223.169 336.131 223.185C334.504 223.202 332.837 223.233 331.215 223.258C330.819 223.276 330.484 223.261 330.274 223.218C330.064 223.174 329.994 223.104 330.079 223.022C330.291 222.933 330.624 222.847 331.023 222.778C331.422 222.708 331.863 222.66 332.275 222.64L333.16 222.627C334.235 222.6 335.351 222.559 336.389 222.553C337.062 222.576 337.842 222.559 338.668 222.502C339.494 222.446 340.344 222.352 341.15 222.228L343.692 222.329ZM447.429 159.505C447.095 159.6 446.717 159.691 446.305 159.775C444.711 160.009 443.023 160.142 441.573 160.148C440.888 160.162 440.261 160.111 439.563 160.186C438.311 160.286 437.098 160.34 435.989 160.343C435.989 160.343 435.678 160.322 435.576 160.317L435.363 159.97C435.888 159.89 436.436 159.824 436.981 159.776C438.809 159.684 440.606 159.621 442.397 159.55C444.189 159.479 444.814 159.446 445.986 159.416C446.508 159.433 446.992 159.462 447.429 159.505ZM487.023 202.618L484.63 203.328C483.856 203.39 483.133 203.401 482.57 203.36C482.008 203.319 481.638 203.228 481.515 203.101C481.318 203.042 481.298 202.953 481.46 202.855C481.622 202.757 481.953 202.656 482.383 202.574C482.797 202.477 483.27 202.389 483.772 202.317C484.274 202.246 484.795 202.191 485.302 202.156L487.023 202.618ZM467.102 199.084C468.667 198.964 470.163 198.915 471.478 198.94C472.306 199.011 473.428 198.988 474.614 198.878C476.77 198.657 478.849 198.596 480.412 198.707C480.412 198.707 480.47 198.802 480.735 198.829C480.999 198.857 479.949 198.923 479.718 198.951C478.023 199.019 476.319 199.071 474.846 199.095C473.931 199.094 472.964 199.116 471.96 199.162C470.58 199.232 469.27 199.254 468.083 199.229C468.083 199.229 467.624 199.208 467.107 199.092L467.102 199.084ZM299.974 162.113C300.722 161.979 301.532 161.871 302.345 161.795C303.158 161.72 303.952 161.68 304.667 161.677C305.216 161.67 305.659 161.706 305.928 161.778C306.196 161.85 306.275 161.954 306.151 162.075C305.596 162.141 304.857 162.23 304.441 162.28C303 162.275 301.77 162.211 299.974 162.113ZM160.052 173.378C160.652 173.271 161.312 173.188 161.959 173.141C162.605 173.093 163.211 173.082 163.707 173.109C163.962 173.121 163.789 173.243 163.832 173.314C163.86 173.33 163.86 173.35 163.831 173.372C163.802 173.394 163.746 173.417 163.667 173.438C163.589 173.46 163.492 173.479 163.387 173.494C163.282 173.509 163.171 173.52 163.068 173.524C162.417 173.571 161.803 173.585 161.28 173.565C160.757 173.545 160.342 173.491 160.071 173.41L160.052 173.378ZM150.677 174.917C150.77 174.853 150.967 174.787 151.233 174.73C151.499 174.673 151.816 174.63 152.125 174.608C152.671 174.605 153.167 174.622 153.595 174.66C154.059 174.689 153.725 174.873 153.098 174.982C152.832 175.026 152.548 175.06 152.268 175.082C151.989 175.103 151.721 175.112 151.487 175.107C151.253 175.103 151.059 175.084 150.92 175.054C150.781 175.024 150.701 174.982 150.687 174.932L150.677 174.917ZM423.092 160.18C424.49 159.954 425.567 160.011 426.751 159.919C427.935 159.828 428.227 159.819 428.068 159.965C427.91 160.111 427.098 160.081 426.59 160.142C425.903 160.223 425.212 160.269 424.594 160.276C423.977 160.283 423.456 160.25 423.092 160.18ZM131.63 198.57C132.371 198.519 133.097 198.483 133.797 198.463C133.889 198.484 133.946 198.512 133.966 198.544C133.986 198.577 133.968 198.613 133.912 198.652C133.912 198.652 133.438 198.768 133.161 198.801C132.139 198.915 132.089 198.752 131.63 198.57ZM26.9201 219.709C26.4187 219.863 26.1849 219.967 25.7835 220.04C25.5991 220.066 25.4084 220.084 25.2257 220.094C25.0431 220.105 24.8731 220.106 24.7283 220.099C24.5519 220.055 24.5105 219.987 24.6124 219.91C24.6124 219.91 25.1234 219.772 25.3179 219.766C25.8728 219.734 26.4106 219.715 26.9201 219.709ZM446.9 158.883C447.962 158.756 448.979 158.634 449.715 158.783C448.027 158.943 448.027 158.943 446.9 158.883ZM429.686 160.338C430.759 160.065 431.389 160.04 431.904 160.072C432.013 160.08 432.086 160.097 432.11 160.122C432.135 160.146 432.11 160.177 432.039 160.208C431.969 160.239 431.857 160.27 431.72 160.296C431.583 160.321 431.429 160.34 431.28 160.349C430.721 160.357 430.187 160.353 429.686 160.338ZM374.451 160.453C374.427 160.413 374.398 160.366 374.675 160.333C374.748 160.316 374.833 160.301 374.922 160.291C375.011 160.28 375.101 160.274 375.183 160.272C375.183 160.272 375.212 160.319 375.231 160.351L374.451 160.453ZM336.094 225.88L336.711 225.916L336.434 225.949L335.702 225.969L336.094 225.88ZM118.754 174.302C118.985 174.274 119.216 174.246 119.25 174.301C119.299 174.31 119.329 174.322 119.338 174.337C119.347 174.353 119.335 174.37 119.303 174.388C119.303 174.388 118.979 174.427 118.841 174.444L118.754 174.302ZM154.737 174.743C154.889 174.74 155.026 174.744 155.141 174.754L155.17 174.801L154.707 174.857L154.737 174.743ZM468.322 186.011C468.501 185.982 468.69 185.959 468.877 185.944L469.108 185.917C469.108 185.917 468.859 185.997 468.721 186.014C468.582 186.03 468.47 186.01 468.322 186.011Z" fill="#FFBE21"/>
</g>
<path d="M4.488 60V13.8H21.582C25.278 13.8 28.336 14.416 30.756 15.648C33.176 16.88 34.98 18.574 36.168 20.73C37.356 22.886 37.95 25.306 37.95 27.99C37.95 30.542 37.378 32.896 36.234 35.052C35.09 37.164 33.308 38.88 30.888 40.2C28.468 41.476 25.366 42.114 21.582 42.114H12.936V60H4.488ZM12.936 35.25H21.054C24.002 35.25 26.114 34.612 27.39 33.336C28.71 32.016 29.37 30.234 29.37 27.99C29.37 25.702 28.71 23.92 27.39 22.644C26.114 21.324 24.002 20.664 21.054 20.664H12.936V35.25ZM44.3798 60V27.264H51.9038L52.6958 33.402C53.8838 31.29 55.4898 29.618 57.5138 28.386C59.5818 27.11 62.0018 26.472 64.7738 26.472V35.382H62.3978C60.5498 35.382 58.8998 35.668 57.4478 36.24C55.9958 36.812 54.8518 37.802 54.0158 39.21C53.2238 40.618 52.8278 42.576 52.8278 45.084V60H44.3798ZM85.6757 60.792C82.5077 60.792 79.6477 60.066 77.0957 58.614C74.5877 57.162 72.5857 55.16 71.0897 52.608C69.6377 50.012 68.9117 47.02 68.9117 43.632C68.9117 40.244 69.6597 37.274 71.1557 34.722C72.6517 32.126 74.6537 30.102 77.1617 28.65C79.7137 27.198 82.5737 26.472 85.7417 26.472C88.8657 26.472 91.6817 27.198 94.1897 28.65C96.7417 30.102 98.7437 32.126 100.196 34.722C101.692 37.274 102.44 40.244 102.44 43.632C102.44 47.02 101.692 50.012 100.196 52.608C98.7437 55.16 96.7417 57.162 94.1897 58.614C91.6377 60.066 88.7997 60.792 85.6757 60.792ZM85.6757 53.466C87.8757 53.466 89.7897 52.652 91.4177 51.024C93.0457 49.352 93.8597 46.888 93.8597 43.632C93.8597 40.376 93.0457 37.934 91.4177 36.306C89.7897 34.634 87.8977 33.798 85.7417 33.798C83.4977 33.798 81.5617 34.634 79.9337 36.306C78.3497 37.934 77.5577 40.376 77.5577 43.632C77.5577 46.888 78.3497 49.352 79.9337 51.024C81.5617 52.652 83.4757 53.466 85.6757 53.466ZM126.031 60.792C122.687 60.792 119.739 60.066 117.187 58.614C114.635 57.162 112.611 55.138 111.115 52.542C109.663 49.946 108.937 46.976 108.937 43.632C108.937 40.288 109.663 37.318 111.115 34.722C112.611 32.126 114.635 30.102 117.187 28.65C119.739 27.198 122.687 26.472 126.031 26.472C130.211 26.472 133.731 27.572 136.591 29.772C139.451 31.928 141.277 34.92 142.069 38.748H133.159C132.719 37.164 131.839 35.932 130.519 35.052C129.243 34.128 127.725 33.666 125.965 33.666C123.633 33.666 121.653 34.546 120.025 36.306C118.397 38.066 117.583 40.508 117.583 43.632C117.583 46.756 118.397 49.198 120.025 50.958C121.653 52.718 123.633 53.598 125.965 53.598C127.725 53.598 129.243 53.158 130.519 52.278C131.839 51.398 132.719 50.144 133.159 48.516H142.069C141.277 52.212 139.451 55.182 136.591 57.426C133.731 59.67 130.211 60.792 126.031 60.792ZM165.473 60.792C162.173 60.792 159.247 60.088 156.695 58.68C154.143 57.272 152.141 55.292 150.689 52.74C149.237 50.188 148.511 47.24 148.511 43.896C148.511 40.508 149.215 37.494 150.623 34.854C152.075 32.214 154.055 30.168 156.563 28.716C159.115 27.22 162.107 26.472 165.539 26.472C168.751 26.472 171.589 27.176 174.053 28.584C176.517 29.992 178.431 31.928 179.795 34.392C181.203 36.812 181.907 39.518 181.907 42.51C181.907 42.994 181.885 43.5 181.841 44.028C181.841 44.556 181.819 45.106 181.775 45.678H156.893C157.069 48.23 157.949 50.232 159.533 51.684C161.161 53.136 163.119 53.862 165.407 53.862C167.123 53.862 168.553 53.488 169.697 52.74C170.885 51.948 171.765 50.936 172.337 49.704H180.917C180.301 51.772 179.267 53.664 177.815 55.38C176.407 57.052 174.647 58.372 172.535 59.34C170.467 60.308 168.113 60.792 165.473 60.792ZM165.539 33.336C163.471 33.336 161.645 33.93 160.061 35.118C158.477 36.262 157.465 38.022 157.025 40.398H173.327C173.195 38.242 172.403 36.526 170.951 35.25C169.499 33.974 167.695 33.336 165.539 33.336ZM202.543 60.792C199.639 60.792 197.087 60.33 194.887 59.406C192.687 58.438 190.927 57.118 189.607 55.446C188.287 53.774 187.495 51.838 187.231 49.638H195.745C196.009 50.914 196.713 52.014 197.857 52.938C199.045 53.818 200.563 54.258 202.411 54.258C204.259 54.258 205.601 53.884 206.437 53.136C207.317 52.388 207.757 51.53 207.757 50.562C207.757 49.154 207.141 48.208 205.909 47.724C204.677 47.196 202.961 46.69 200.761 46.206C199.353 45.898 197.923 45.524 196.471 45.084C195.019 44.644 193.677 44.094 192.445 43.434C191.257 42.73 190.289 41.85 189.541 40.794C188.793 39.694 188.419 38.352 188.419 36.768C188.419 33.864 189.563 31.422 191.851 29.442C194.183 27.462 197.439 26.472 201.619 26.472C205.491 26.472 208.571 27.374 210.859 29.178C213.191 30.982 214.577 33.468 215.017 36.636H207.031C206.547 34.216 204.721 33.006 201.553 33.006C199.969 33.006 198.737 33.314 197.857 33.93C197.021 34.546 196.603 35.316 196.603 36.24C196.603 37.208 197.241 37.978 198.517 38.55C199.793 39.122 201.487 39.65 203.599 40.134C205.887 40.662 207.977 41.256 209.869 41.916C211.805 42.532 213.345 43.478 214.489 44.754C215.633 45.986 216.205 47.768 216.205 50.1C216.249 52.124 215.721 53.95 214.621 55.578C213.521 57.206 211.937 58.482 209.869 59.406C207.801 60.33 205.359 60.792 202.543 60.792ZM234.974 60.792C232.158 60.792 229.848 60.352 228.044 59.472C226.24 58.548 224.898 57.338 224.018 55.842C223.138 54.346 222.698 52.696 222.698 50.892C222.698 47.856 223.886 45.392 226.262 43.5C228.638 41.608 232.202 40.662 236.954 40.662H245.27V39.87C245.27 37.626 244.632 35.976 243.356 34.92C242.08 33.864 240.496 33.336 238.604 33.336C236.888 33.336 235.392 33.754 234.116 34.59C232.84 35.382 232.048 36.57 231.74 38.154H223.49C223.71 35.778 224.502 33.71 225.866 31.95C227.274 30.19 229.078 28.848 231.278 27.924C233.478 26.956 235.942 26.472 238.67 26.472C243.334 26.472 247.008 27.638 249.692 29.97C252.376 32.302 253.718 35.602 253.718 39.87V60H246.524L245.732 54.72C244.764 56.48 243.4 57.932 241.64 59.076C239.924 60.22 237.702 60.792 234.974 60.792ZM236.888 54.192C239.308 54.192 241.178 53.4 242.498 51.816C243.862 50.232 244.72 48.274 245.072 45.942H237.878C235.634 45.942 234.028 46.36 233.06 47.196C232.092 47.988 231.608 48.978 231.608 50.166C231.608 51.442 232.092 52.432 233.06 53.136C234.028 53.84 235.304 54.192 236.888 54.192ZM277.507 60V12.48H285.955V60H277.507ZM305.873 60.792C303.057 60.792 300.747 60.352 298.943 59.472C297.139 58.548 295.797 57.338 294.917 55.842C294.037 54.346 293.597 52.696 293.597 50.892C293.597 47.856 294.785 45.392 297.161 43.5C299.537 41.608 303.101 40.662 307.853 40.662H316.169V39.87C316.169 37.626 315.531 35.976 314.255 34.92C312.979 33.864 311.395 33.336 309.503 33.336C307.787 33.336 306.291 33.754 305.015 34.59C303.739 35.382 302.947 36.57 302.639 38.154H294.389C294.609 35.778 295.401 33.71 296.765 31.95C298.173 30.19 299.977 28.848 302.177 27.924C304.377 26.956 306.841 26.472 309.569 26.472C314.233 26.472 317.907 27.638 320.591 29.97C323.275 32.302 324.617 35.602 324.617 39.87V60H317.423L316.631 54.72C315.663 56.48 314.299 57.932 312.539 59.076C310.823 60.22 308.601 60.792 305.873 60.792ZM307.787 54.192C310.207 54.192 312.077 53.4 313.397 51.816C314.761 50.232 315.619 48.274 315.971 45.942H308.777C306.533 45.942 304.927 46.36 303.959 47.196C302.991 47.988 302.507 48.978 302.507 50.166C302.507 51.442 302.991 52.432 303.959 53.136C304.927 53.84 306.203 54.192 307.787 54.192ZM4.29 135V102.264H11.748L12.474 106.686C13.53 105.102 14.916 103.848 16.632 102.924C18.392 101.956 20.416 101.472 22.704 101.472C27.764 101.472 31.35 103.43 33.462 107.346C34.65 105.542 36.234 104.112 38.214 103.056C40.238 102 42.438 101.472 44.814 101.472C49.082 101.472 52.36 102.748 54.648 105.3C56.936 107.852 58.08 111.592 58.08 116.52V135H49.632V117.312C49.632 114.496 49.082 112.34 47.982 110.844C46.926 109.348 45.276 108.6 43.032 108.6C40.744 108.6 38.896 109.436 37.488 111.108C36.124 112.78 35.442 115.112 35.442 118.104V135H26.994V117.312C26.994 114.496 26.444 112.34 25.344 110.844C24.244 109.348 22.55 108.6 20.262 108.6C18.018 108.6 16.192 109.436 14.784 111.108C13.42 112.78 12.738 115.112 12.738 118.104V135H4.29ZM77.3865 135.792C74.5705 135.792 72.2605 135.352 70.4565 134.472C68.6525 133.548 67.3105 132.338 66.4305 130.842C65.5505 129.346 65.1105 127.696 65.1105 125.892C65.1105 122.856 66.2985 120.392 68.6745 118.5C71.0505 116.608 74.6145 115.662 79.3665 115.662H87.6825V114.87C87.6825 112.626 87.0445 110.976 85.7685 109.92C84.4925 108.864 82.9085 108.336 81.0165 108.336C79.3005 108.336 77.8045 108.754 76.5285 109.59C75.2525 110.382 74.4605 111.57 74.1525 113.154H65.9025C66.1225 110.778 66.9145 108.71 68.2785 106.95C69.6865 105.19 71.4905 103.848 73.6905 102.924C75.8905 101.956 78.3545 101.472 81.0825 101.472C85.7465 101.472 89.4205 102.638 92.1045 104.97C94.7885 107.302 96.1305 110.602 96.1305 114.87V135H88.9365L88.1445 129.72C87.1765 131.48 85.8125 132.932 84.0525 134.076C82.3365 135.22 80.1145 135.792 77.3865 135.792ZM79.3005 129.192C81.7205 129.192 83.5905 128.4 84.9105 126.816C86.2745 125.232 87.1325 123.274 87.4845 120.942H80.2905C78.0465 120.942 76.4405 121.36 75.4725 122.196C74.5045 122.988 74.0205 123.978 74.0205 125.166C74.0205 126.442 74.5045 127.432 75.4725 128.136C76.4405 128.84 77.7165 129.192 79.3005 129.192ZM118.327 135C114.895 135 112.145 134.164 110.077 132.492C108.009 130.82 106.975 127.85 106.975 123.582V109.326H101.365V102.264H106.975L107.965 93.486H115.423V102.264H124.267V109.326H115.423V123.648C115.423 125.232 115.753 126.332 116.413 126.948C117.117 127.52 118.305 127.806 119.977 127.806H124.069V135H118.327ZM131.52 135V102.264H139.044L139.836 108.402C141.024 106.29 142.63 104.618 144.654 103.386C146.722 102.11 149.142 101.472 151.914 101.472V110.382H149.538C147.69 110.382 146.04 110.668 144.588 111.24C143.136 111.812 141.992 112.802 141.156 114.21C140.364 115.618 139.968 117.576 139.968 120.084V135H131.52ZM162.242 97.182C160.702 97.182 159.426 96.72 158.414 95.796C157.446 94.872 156.962 93.706 156.962 92.298C156.962 90.89 157.446 89.746 158.414 88.866C159.426 87.942 160.702 87.48 162.242 87.48C163.782 87.48 165.036 87.942 166.004 88.866C167.016 89.746 167.522 90.89 167.522 92.298C167.522 93.706 167.016 94.872 166.004 95.796C165.036 96.72 163.782 97.182 162.242 97.182ZM158.018 135V102.264H166.466V135H158.018ZM191.322 135.792C187.978 135.792 185.03 135.066 182.478 133.614C179.926 132.162 177.902 130.138 176.406 127.542C174.954 124.946 174.228 121.976 174.228 118.632C174.228 115.288 174.954 112.318 176.406 109.722C177.902 107.126 179.926 105.102 182.478 103.65C185.03 102.198 187.978 101.472 191.322 101.472C195.502 101.472 199.022 102.572 201.882 104.772C204.742 106.928 206.568 109.92 207.36 113.748H198.45C198.01 112.164 197.13 110.932 195.81 110.052C194.534 109.128 193.016 108.666 191.256 108.666C188.924 108.666 186.944 109.546 185.316 111.306C183.688 113.066 182.874 115.508 182.874 118.632C182.874 121.756 183.688 124.198 185.316 125.958C186.944 127.718 188.924 128.598 191.256 128.598C193.016 128.598 194.534 128.158 195.81 127.278C197.13 126.398 198.01 125.144 198.45 123.516H207.36C206.568 127.212 204.742 130.182 201.882 132.426C199.022 134.67 195.502 135.792 191.322 135.792ZM227.134 135.792C223.042 135.792 219.874 134.516 217.63 131.964C215.43 129.412 214.33 125.672 214.33 120.744V102.264H222.712V119.952C222.712 122.768 223.284 124.924 224.428 126.42C225.572 127.916 227.376 128.664 229.84 128.664C232.172 128.664 234.086 127.828 235.582 126.156C237.122 124.484 237.892 122.152 237.892 119.16V102.264H246.34V135H238.882L238.222 129.456C237.21 131.392 235.736 132.932 233.8 134.076C231.908 135.22 229.686 135.792 227.134 135.792ZM255.013 135V87.48H263.461V135H255.013ZM283.379 135.792C280.563 135.792 278.253 135.352 276.449 134.472C274.645 133.548 273.303 132.338 272.423 130.842C271.543 129.346 271.103 127.696 271.103 125.892C271.103 122.856 272.291 120.392 274.667 118.5C277.043 116.608 280.607 115.662 285.359 115.662H293.675V114.87C293.675 112.626 293.037 110.976 291.761 109.92C290.485 108.864 288.901 108.336 287.009 108.336C285.293 108.336 283.797 108.754 282.521 109.59C281.245 110.382 280.453 111.57 280.145 113.154H271.895C272.115 110.778 272.907 108.71 274.271 106.95C275.679 105.19 277.483 103.848 279.683 102.924C281.883 101.956 284.347 101.472 287.075 101.472C291.739 101.472 295.413 102.638 298.097 104.97C300.781 107.302 302.123 110.602 302.123 114.87V135H294.929L294.137 129.72C293.169 131.48 291.805 132.932 290.045 134.076C288.329 135.22 286.107 135.792 283.379 135.792ZM285.293 129.192C287.713 129.192 289.583 128.4 290.903 126.816C292.267 125.232 293.125 123.274 293.477 120.942H286.283C284.039 120.942 282.433 121.36 281.465 122.196C280.497 122.988 280.013 123.978 280.013 125.166C280.013 126.442 280.497 127.432 281.465 128.136C282.433 128.84 283.709 129.192 285.293 129.192ZM340.959 135.792C337.879 135.792 335.129 135.044 332.709 133.548C330.289 132.052 328.375 130.006 326.967 127.41C325.559 124.814 324.855 121.866 324.855 118.566C324.855 115.266 325.559 112.34 326.967 109.788C328.375 107.192 330.289 105.168 332.709 103.716C335.129 102.22 337.879 101.472 340.959 101.472C343.423 101.472 345.579 101.934 347.427 102.858C349.275 103.782 350.771 105.08 351.915 106.752V87.48H360.363V135H352.839L351.915 130.314C350.859 131.766 349.451 133.042 347.691 134.142C345.975 135.242 343.731 135.792 340.959 135.792ZM342.741 128.4C345.469 128.4 347.691 127.498 349.407 125.694C351.167 123.846 352.047 121.492 352.047 118.632C352.047 115.772 351.167 113.44 349.407 111.636C347.691 109.788 345.469 108.864 342.741 108.864C340.057 108.864 337.835 109.766 336.075 111.57C334.315 113.374 333.435 115.706 333.435 118.566C333.435 121.426 334.315 123.78 336.075 125.628C337.835 127.476 340.057 128.4 342.741 128.4ZM384.872 135.792C381.572 135.792 378.646 135.088 376.094 133.68C373.542 132.272 371.54 130.292 370.088 127.74C368.636 125.188 367.91 122.24 367.91 118.896C367.91 115.508 368.614 112.494 370.022 109.854C371.474 107.214 373.454 105.168 375.962 103.716C378.514 102.22 381.506 101.472 384.938 101.472C388.15 101.472 390.988 102.176 393.452 103.584C395.916 104.992 397.83 106.928 399.194 109.392C400.602 111.812 401.306 114.518 401.306 117.51C401.306 117.994 401.284 118.5 401.24 119.028C401.24 119.556 401.218 120.106 401.174 120.678H376.292C376.468 123.23 377.348 125.232 378.932 126.684C380.56 128.136 382.518 128.862 384.806 128.862C386.522 128.862 387.952 128.488 389.096 127.74C390.284 126.948 391.164 125.936 391.736 124.704H400.316C399.7 126.772 398.666 128.664 397.214 130.38C395.806 132.052 394.046 133.372 391.934 134.34C389.866 135.308 387.512 135.792 384.872 135.792ZM384.938 108.336C382.87 108.336 381.044 108.93 379.46 110.118C377.876 111.262 376.864 113.022 376.424 115.398H392.726C392.594 113.242 391.802 111.526 390.35 110.25C388.898 108.974 387.094 108.336 384.938 108.336ZM421.941 135.792C419.037 135.792 416.485 135.33 414.285 134.406C412.085 133.438 410.325 132.118 409.005 130.446C407.685 128.774 406.893 126.838 406.629 124.638H415.143C415.407 125.914 416.111 127.014 417.255 127.938C418.443 128.818 419.961 129.258 421.809 129.258C423.657 129.258 424.999 128.884 425.835 128.136C426.715 127.388 427.155 126.53 427.155 125.562C427.155 124.154 426.539 123.208 425.307 122.724C424.075 122.196 422.359 121.69 420.159 121.206C418.751 120.898 417.321 120.524 415.869 120.084C414.417 119.644 413.075 119.094 411.843 118.434C410.655 117.73 409.687 116.85 408.939 115.794C408.191 114.694 407.817 113.352 407.817 111.768C407.817 108.864 408.961 106.422 411.249 104.442C413.581 102.462 416.837 101.472 421.017 101.472C424.889 101.472 427.969 102.374 430.257 104.178C432.589 105.982 433.975 108.468 434.415 111.636H426.429C425.945 109.216 424.119 108.006 420.951 108.006C419.367 108.006 418.135 108.314 417.255 108.93C416.419 109.546 416.001 110.316 416.001 111.24C416.001 112.208 416.639 112.978 417.915 113.55C419.191 114.122 420.885 114.65 422.997 115.134C425.285 115.662 427.375 116.256 429.267 116.916C431.203 117.532 432.743 118.478 433.887 119.754C435.031 120.986 435.603 122.768 435.603 125.1C435.647 127.124 435.119 128.95 434.019 130.578C432.919 132.206 431.335 133.482 429.267 134.406C427.199 135.33 424.757 135.792 421.941 135.792ZM458.135 135.792C455.055 135.792 452.305 135.044 449.885 133.548C447.465 132.052 445.551 130.006 444.143 127.41C442.735 124.814 442.031 121.866 442.031 118.566C442.031 115.266 442.735 112.34 444.143 109.788C445.551 107.192 447.465 105.168 449.885 103.716C452.305 102.22 455.055 101.472 458.135 101.472C460.599 101.472 462.755 101.934 464.603 102.858C466.451 103.782 467.947 105.08 469.091 106.752V87.48H477.539V135H470.015L469.091 130.314C468.035 131.766 466.627 133.042 464.867 134.142C463.151 135.242 460.907 135.792 458.135 135.792ZM459.917 128.4C462.645 128.4 464.867 127.498 466.583 125.694C468.343 123.846 469.223 121.492 469.223 118.632C469.223 115.772 468.343 113.44 466.583 111.636C464.867 109.788 462.645 108.864 459.917 108.864C457.233 108.864 455.011 109.766 453.251 111.57C451.491 113.374 450.611 115.706 450.611 118.566C450.611 121.426 451.491 123.78 453.251 125.628C455.011 127.476 457.233 128.4 459.917 128.4ZM502.048 135.792C498.748 135.792 495.822 135.088 493.27 133.68C490.718 132.272 488.716 130.292 487.264 127.74C485.812 125.188 485.086 122.24 485.086 118.896C485.086 115.508 485.79 112.494 487.198 109.854C488.65 107.214 490.63 105.168 493.138 103.716C495.69 102.22 498.682 101.472 502.114 101.472C505.326 101.472 508.164 102.176 510.628 103.584C513.092 104.992 515.006 106.928 516.37 109.392C517.778 111.812 518.482 114.518 518.482 117.51C518.482 117.994 518.46 118.5 518.416 119.028C518.416 119.556 518.394 120.106 518.35 120.678H493.468C493.644 123.23 494.524 125.232 496.108 126.684C497.736 128.136 499.694 128.862 501.982 128.862C503.698 128.862 505.128 128.488 506.272 127.74C507.46 126.948 508.34 125.936 508.912 124.704H517.492C516.876 126.772 515.842 128.664 514.39 130.38C512.982 132.052 511.222 133.372 509.11 134.34C507.042 135.308 504.688 135.792 502.048 135.792ZM502.114 108.336C500.046 108.336 498.22 108.93 496.636 110.118C495.052 111.262 494.04 113.022 493.6 115.398H509.902C509.77 113.242 508.978 111.526 507.526 110.25C506.074 108.974 504.27 108.336 502.114 108.336ZM19.338 210.792C16.258 210.792 13.508 210.044 11.088 208.548C8.668 207.052 6.754 205.006 5.346 202.41C3.938 199.814 3.234 196.866 3.234 193.566C3.234 190.266 3.938 187.34 5.346 184.788C6.754 182.192 8.668 180.168 11.088 178.716C13.508 177.22 16.258 176.472 19.338 176.472C21.802 176.472 23.958 176.934 25.806 177.858C27.654 178.782 29.15 180.08 30.294 181.752V162.48H38.742V210H31.218L30.294 205.314C29.238 206.766 27.83 208.042 26.07 209.142C24.354 210.242 22.11 210.792 19.338 210.792ZM21.12 203.4C23.848 203.4 26.07 202.498 27.786 200.694C29.546 198.846 30.426 196.492 30.426 193.632C30.426 190.772 29.546 188.44 27.786 186.636C26.07 184.788 23.848 183.864 21.12 183.864C18.436 183.864 16.214 184.766 14.454 186.57C12.694 188.374 11.814 190.706 11.814 193.566C11.814 196.426 12.694 198.78 14.454 200.628C16.214 202.476 18.436 203.4 21.12 203.4ZM63.0527 210.792C59.8847 210.792 57.0247 210.066 54.4727 208.614C51.9647 207.162 49.9627 205.16 48.4667 202.608C47.0147 200.012 46.2887 197.02 46.2887 193.632C46.2887 190.244 47.0367 187.274 48.5327 184.722C50.0287 182.126 52.0307 180.102 54.5387 178.65C57.0907 177.198 59.9507 176.472 63.1187 176.472C66.2427 176.472 69.0587 177.198 71.5667 178.65C74.1187 180.102 76.1207 182.126 77.5727 184.722C79.0687 187.274 79.8167 190.244 79.8167 193.632C79.8167 197.02 79.0687 200.012 77.5727 202.608C76.1207 205.16 74.1187 207.162 71.5667 208.614C69.0147 210.066 66.1767 210.792 63.0527 210.792ZM63.0527 203.466C65.2527 203.466 67.1667 202.652 68.7947 201.024C70.4227 199.352 71.2367 196.888 71.2367 193.632C71.2367 190.376 70.4227 187.934 68.7947 186.306C67.1667 184.634 65.2747 183.798 63.1187 183.798C60.8747 183.798 58.9387 184.634 57.3107 186.306C55.7267 187.934 54.9347 190.376 54.9347 193.632C54.9347 196.888 55.7267 199.352 57.3107 201.024C58.9387 202.652 60.8527 203.466 63.0527 203.466ZM87.3701 210V177.264H94.8281L95.4881 182.808C96.5001 180.872 97.9521 179.332 99.8441 178.188C101.78 177.044 104.046 176.472 106.642 176.472C110.69 176.472 113.836 177.748 116.08 180.3C118.324 182.852 119.446 186.592 119.446 191.52V210H110.998V192.312C110.998 189.496 110.426 187.34 109.282 185.844C108.138 184.348 106.356 183.6 103.936 183.6C101.56 183.6 99.6021 184.436 98.0621 186.108C96.5661 187.78 95.8181 190.112 95.8181 193.104V210H87.3701ZM142.572 210.792C139.492 210.792 136.742 210.044 134.322 208.548C131.902 207.052 129.988 205.006 128.58 202.41C127.172 199.814 126.468 196.866 126.468 193.566C126.468 190.266 127.172 187.34 128.58 184.788C129.988 182.192 131.902 180.168 134.322 178.716C136.742 177.22 139.492 176.472 142.572 176.472C145.036 176.472 147.192 176.934 149.04 177.858C150.888 178.782 152.384 180.08 153.528 181.752V162.48H161.976V210H154.452L153.528 205.314C152.472 206.766 151.064 208.042 149.304 209.142C147.588 210.242 145.344 210.792 142.572 210.792ZM144.354 203.4C147.082 203.4 149.304 202.498 151.02 200.694C152.78 198.846 153.66 196.492 153.66 193.632C153.66 190.772 152.78 188.44 151.02 186.636C149.304 184.788 147.082 183.864 144.354 183.864C141.67 183.864 139.448 184.766 137.688 186.57C135.928 188.374 135.048 190.706 135.048 193.566C135.048 196.426 135.928 198.78 137.688 200.628C139.448 202.476 141.67 203.4 144.354 203.4ZM186.485 210.792C183.185 210.792 180.259 210.088 177.707 208.68C175.155 207.272 173.153 205.292 171.701 202.74C170.249 200.188 169.523 197.24 169.523 193.896C169.523 190.508 170.227 187.494 171.635 184.854C173.087 182.214 175.067 180.168 177.575 178.716C180.127 177.22 183.119 176.472 186.551 176.472C189.763 176.472 192.601 177.176 195.065 178.584C197.529 179.992 199.443 181.928 200.807 184.392C202.215 186.812 202.919 189.518 202.919 192.51C202.919 192.994 202.897 193.5 202.853 194.028C202.853 194.556 202.831 195.106 202.787 195.678H177.905C178.081 198.23 178.961 200.232 180.545 201.684C182.173 203.136 184.131 203.862 186.419 203.862C188.135 203.862 189.565 203.488 190.709 202.74C191.897 201.948 192.777 200.936 193.349 199.704H201.929C201.313 201.772 200.279 203.664 198.827 205.38C197.419 207.052 195.659 208.372 193.547 209.34C191.479 210.308 189.125 210.792 186.485 210.792ZM186.551 183.336C184.483 183.336 182.657 183.93 181.073 185.118C179.489 186.262 178.477 188.022 178.037 190.398H194.339C194.207 188.242 193.415 186.526 191.963 185.25C190.511 183.974 188.707 183.336 186.551 183.336ZM239.281 210.792C236.377 210.792 233.825 210.33 231.625 209.406C229.425 208.438 227.665 207.118 226.345 205.446C225.025 203.774 224.233 201.838 223.969 199.638H232.483C232.747 200.914 233.451 202.014 234.595 202.938C235.783 203.818 237.301 204.258 239.149 204.258C240.997 204.258 242.339 203.884 243.175 203.136C244.055 202.388 244.495 201.53 244.495 200.562C244.495 199.154 243.879 198.208 242.647 197.724C241.415 197.196 239.699 196.69 237.499 196.206C236.091 195.898 234.661 195.524 233.209 195.084C231.757 194.644 230.415 194.094 229.183 193.434C227.995 192.73 227.027 191.85 226.279 190.794C225.531 189.694 225.157 188.352 225.157 186.768C225.157 183.864 226.301 181.422 228.589 179.442C230.921 177.462 234.177 176.472 238.357 176.472C242.229 176.472 245.309 177.374 247.597 179.178C249.929 180.982 251.315 183.468 251.755 186.636H243.769C243.285 184.216 241.459 183.006 238.291 183.006C236.707 183.006 235.475 183.314 234.595 183.93C233.759 184.546 233.341 185.316 233.341 186.24C233.341 187.208 233.979 187.978 235.255 188.55C236.531 189.122 238.225 189.65 240.337 190.134C242.625 190.662 244.715 191.256 246.607 191.916C248.543 192.532 250.083 193.478 251.227 194.754C252.371 195.986 252.943 197.768 252.943 200.1C252.987 202.124 252.459 203.95 251.359 205.578C250.259 207.206 248.675 208.482 246.607 209.406C244.539 210.33 242.097 210.792 239.281 210.792ZM276.333 210.792C273.033 210.792 270.107 210.088 267.555 208.68C265.003 207.272 263.001 205.292 261.549 202.74C260.097 200.188 259.371 197.24 259.371 193.896C259.371 190.508 260.075 187.494 261.483 184.854C262.935 182.214 264.915 180.168 267.423 178.716C269.975 177.22 272.967 176.472 276.399 176.472C279.611 176.472 282.449 177.176 284.913 178.584C287.377 179.992 289.291 181.928 290.655 184.392C292.063 186.812 292.767 189.518 292.767 192.51C292.767 192.994 292.745 193.5 292.701 194.028C292.701 194.556 292.679 195.106 292.635 195.678H267.753C267.929 198.23 268.809 200.232 270.393 201.684C272.021 203.136 273.979 203.862 276.267 203.862C277.983 203.862 279.413 203.488 280.557 202.74C281.745 201.948 282.625 200.936 283.197 199.704H291.777C291.161 201.772 290.127 203.664 288.675 205.38C287.267 207.052 285.507 208.372 283.395 209.34C281.327 210.308 278.973 210.792 276.333 210.792ZM276.399 183.336C274.331 183.336 272.505 183.93 270.921 185.118C269.337 186.262 268.325 188.022 267.885 190.398H284.187C284.055 188.242 283.263 186.526 281.811 185.25C280.359 183.974 278.555 183.336 276.399 183.336ZM311.158 210.792C308.342 210.792 306.032 210.352 304.228 209.472C302.424 208.548 301.082 207.338 300.202 205.842C299.322 204.346 298.882 202.696 298.882 200.892C298.882 197.856 300.07 195.392 302.446 193.5C304.822 191.608 308.386 190.662 313.138 190.662H321.454V189.87C321.454 187.626 320.816 185.976 319.54 184.92C318.264 183.864 316.68 183.336 314.788 183.336C313.072 183.336 311.576 183.754 310.3 184.59C309.024 185.382 308.232 186.57 307.924 188.154H299.674C299.894 185.778 300.686 183.71 302.05 181.95C303.458 180.19 305.262 178.848 307.462 177.924C309.662 176.956 312.126 176.472 314.854 176.472C319.518 176.472 323.192 177.638 325.876 179.97C328.56 182.302 329.902 185.602 329.902 189.87V210H322.708L321.916 204.72C320.948 206.48 319.584 207.932 317.824 209.076C316.108 210.22 313.886 210.792 311.158 210.792ZM313.072 204.192C315.492 204.192 317.362 203.4 318.682 201.816C320.046 200.232 320.904 198.274 321.256 195.942H314.062C311.818 195.942 310.212 196.36 309.244 197.196C308.276 197.988 307.792 198.978 307.792 200.166C307.792 201.442 308.276 202.432 309.244 203.136C310.212 203.84 311.488 204.192 313.072 204.192ZM339.746 195.414L338.822 163.8H347.864L346.874 195.414H339.746ZM343.508 210.462C341.924 210.462 340.626 209.978 339.614 209.01C338.646 208.042 338.162 206.876 338.162 205.512C338.162 204.104 338.646 202.916 339.614 201.948C340.626 200.98 341.924 200.496 343.508 200.496C345.004 200.496 346.236 200.98 347.204 201.948C348.216 202.916 348.722 204.104 348.722 205.512C348.722 206.876 348.216 208.042 347.204 209.01C346.236 209.978 345.004 210.462 343.508 210.462Z" fill="#333333"/>
<path fill-rule="evenodd" clip-rule="evenodd" d="M469.928 18.6801C470.858 17.7429 471.908 16.9023 473.011 16.1925C475.17 14.8039 478.484 13.4089 481.65 13.044C483.82 12.7938 485.921 13.0306 487.561 14.0399C490.684 15.9621 491.686 19.7477 491.285 23.834C490.992 26.8142 489.958 29.9496 488.512 32.5871C490.333 31.2759 492.73 29.9847 495.137 29.4745C497.836 28.9005 500.541 29.2969 502.527 31.6295C506.677 36.5054 505.416 41.7818 501.902 45.8663C498.449 49.8783 492.803 52.7146 488.121 52.8276C487.874 52.8328 487.668 52.637 487.662 52.3899C487.656 52.1428 487.852 51.9374 488.1 51.9322C492.56 51.8231 497.932 49.106 501.221 45.2824C504.449 41.5315 505.655 36.6872 501.844 32.2107C500.095 30.1563 497.7 29.844 495.324 30.3495C492.851 30.8755 490.393 32.2753 488.622 33.6187C488.143 33.9817 487.658 34.3423 487.179 34.7098C485.967 36.3949 484.582 37.7139 483.161 38.4318C482.808 38.6088 482.614 38.3862 482.562 38.3212C482.492 38.2325 482.417 38.0858 482.494 37.8781C482.508 37.839 482.546 37.7645 482.617 37.6788C482.716 37.5633 482.94 37.3459 483.031 37.2417C483.407 36.8085 483.827 36.4023 484.241 36.0072C484.961 35.3185 485.736 34.6915 486.525 34.084C486.631 33.9332 486.736 33.781 486.839 33.6259C488.686 30.8439 490.054 27.1878 490.392 23.7469C490.757 20.0285 489.932 16.5515 487.09 14.8024C485.611 13.892 483.711 13.7081 481.753 13.9338C478.726 14.2825 475.56 15.6183 473.497 16.9454C472.237 17.756 471.05 18.7453 470.046 19.8585C469.712 20.228 469.416 20.6385 469.134 21.0481C469.103 21.0931 469.06 21.1592 469.014 21.2349C468.895 21.4596 468.768 21.6773 468.632 21.8877C468.56 21.9984 468.507 22.0408 468.498 22.0484C468.246 22.249 468.039 22.1248 467.95 22.0586C467.924 22.0389 467.654 21.8258 467.819 21.4904C467.853 21.4224 468.068 21.0549 468.242 20.777C469.492 18.3813 469.622 15.1823 468.694 12.6952C468.106 11.1186 467.09 9.82567 465.636 9.24882C464.668 8.86534 463.513 8.80284 462.172 9.16562C458.94 10.0406 456.384 12.2062 454.177 14.7727C451.92 17.3981 450.028 20.4452 448.179 23.023C448.035 23.224 447.755 23.2704 447.554 23.1264C447.352 22.9826 447.306 22.7026 447.45 22.5016C449.313 19.9038 451.222 16.8351 453.497 14.1892C455.823 11.4845 458.531 9.2233 461.938 8.30118C463.497 7.87902 464.842 7.9702 465.967 8.41635C467.65 9.08405 468.854 10.5569 469.534 12.3822C470.246 14.2897 470.383 16.5799 469.928 18.6801Z" fill="#A15842"/>
</svg>
